/* XPM */
static char *a44c5c7a3ae34f6f98ad18e8f5f0cfb0KDDnbP9Tqpg6DwYu[] = {
/* columns rows colors chars-per-pixel */
"64 64 219 2 ",
"   c None",
".  c #070706",
"X  c #0C0C0C",
"o  c #070807",
"O  c #10100E",
"+  c #0F1110",
"@  c #141414",
"#  c #191614",
"$  c #1A1916",
"%  c #17191A",
"&  c #1B1B1B",
"*  c #0E100F",
"=  c #221E1B",
"-  c #251913",
";  c #321F1A",
":  c #1E201F",
">  c #25221E",
",  c #2A221D",
"<  c #36231D",
"1  c #1B1E21",
"2  c #111D29",
"3  c #1E2023",
"4  c #18222E",
"5  c #192B3E",
"6  c #192838",
"7  c #232323",
"8  c #2B2622",
"9  c #272928",
"0  c #2B2C2B",
"q  c #262727",
"w  c #362A25",
"e  c #2F302E",
"r  c #32302E",
"t  c #3B332B",
"y  c #212D3A",
"u  c #333433",
"i  c #3D3C3B",
"p  c #3F3832",
"a  c #22303E",
"s  c #4A271D",
"d  c #462B22",
"f  c #532C22",
"g  c #5A2F24",
"h  c #4C3624",
"j  c #5B3124",
"k  c #583428",
"l  c #453933",
"z  c #5D3E37",
"x  c #633526",
"c  c #6C3C2B",
"v  c #63382A",
"b  c #6F3D31",
"n  c #76421A",
"m  c #584828",
"M  c #7A4532",
"N  c #7D4A35",
"B  c #764C3D",
"V  c #6B4B36",
"C  c #7D6838",
"Z  c #1D2E41",
"A  c #1F3248",
"S  c #243345",
"D  c #323C45",
"F  c #2C4259",
"G  c #354556",
"H  c #364D64",
"J  c #3E556E",
"K  c #3D5976",
"L  c #454544",
"P  c #4B4B4B",
"I  c #4C4946",
"U  c #4E4F50",
"Y  c #5D5D5D",
"T  c #555455",
"R  c #5D514A",
"E  c #7C5447",
"W  c #7B574B",
"Q  c #7B6855",
"!  c #47586B",
"~  c #445B73",
"^  c #465C74",
"/  c #4C647C",
"(  c #42607D",
")  c #586978",
"_  c #676666",
"`  c #6A7279",
"'  c #6D6D71",
"]  c #824D36",
"[  c #804531",
"{  c #86523A",
"}  c #8C533B",
"|  c #94583D",
" . c #93773A",
".. c #8F6C32",
"X. c #A06B28",
"o. c #8C5941",
"O. c #865B4B",
"+. c #995D44",
"@. c #955F51",
"#. c #A05C4B",
"$. c #8F694C",
"%. c #A56849",
"&. c #A46B53",
"*. c #B67955",
"=. c #AD714F",
"-. c #896F62",
";. c #AF7662",
":. c #C27C67",
">. c #7D8172",
",. c #B98330",
"<. c #CD9B3B",
"1. c #CA9737",
"2. c #CB9534",
"3. c #D6A23A",
"4. c #D7A83F",
"5. c #ECBD3E",
"6. c #E4AF37",
"7. c #978353",
"8. c #8F8058",
"9. c #A48742",
"0. c #B89545",
"q. c #B6854F",
"w. c #BFA54F",
"e. c #9B8D64",
"r. c #878F7E",
"t. c #BD8361",
"y. c #AA9B6B",
"u. c #A69276",
"i. c #B2A773",
"p. c #A8A176",
"a. c #C79D45",
"s. c #C0845F",
"d. c #D2A545",
"f. c #D6AA46",
"g. c #D5AA49",
"h. c #D8AB4A",
"j. c #DDB34B",
"k. c #D6AE54",
"l. c #D8B457",
"z. c #CEA94B",
"x. c #E5B74D",
"c. c #E3BB50",
"v. c #E1AE4F",
"b. c #C98D65",
"n. c #C48D69",
"m. c #CB926B",
"M. c #D1976E",
"N. c #D28C78",
"B. c #D49C73",
"V. c #C1967D",
"C. c #DAA47C",
"Z. c #CDB264",
"A. c #EEC44B",
"S. c #F3C94A",
"D. c #EEC652",
"F. c #F2CA52",
"G. c #F9D254",
"H. c #F9D45A",
"J. c #FAD85E",
"K. c #DDC876",
"L. c #F9D666",
"P. c #F9DB75",
"I. c #E7CE73",
"U. c #365D82",
"Y. c #3D648A",
"T. c #3C6B94",
"R. c #3F6F99",
"E. c #3E719B",
"W. c #436485",
"Q. c #4B6683",
"!. c #45698B",
"~. c #476889",
"^. c #566D86",
"/. c #59728A",
"(. c #436D94",
"). c #496F92",
"_. c #426F99",
"`. c #457196",
"'. c #4B7294",
"]. c #44729A",
"[. c #4A759B",
"{. c #4D789C",
"}. c #537596",
"|. c #557C9D",
" X c #507799",
".X c #69798B",
"XX c #4C7BA3",
"oX c #497CA5",
"OX c #527DA3",
"+X c #597EA0",
"@X c #698499",
"#X c #778493",
"$X c #4E81A9",
"%X c #5481A6",
"&X c #5483AB",
"*X c #5A86AB",
"=X c #5C8AB1",
"-X c #6185A4",
";X c #668BAA",
":X c #798DA1",
">X c #7692AA",
",X c #648EB2",
"<X c #6E94B4",
"1X c #969B8A",
"2X c #93979B",
"3X c #9DAA99",
"4X c #AEA786",
"5X c #819AB1",
"6X c #AEAAA8",
"7X c #D1AE8A",
"8X c #E4B693",
"9X c #EBBE99",
"0X c #E1B28F",
"qX c #D3C688",
"wX c #F7DA8A",
"eX c #F8DF95",
"rX c #E4D497",
"tX c #F9E198",
"yX c #ECC2A0",
/* pixels */
"                                                                                                                                ",
"                                                                                                                                ",
"                                                                                                                                ",
"                n.o.&.yX8X0X                                                                                                    ",
"                o.} m.B.n.b.*.                                                                                                  ",
"                t.M.b.*.*.=.+.+.                                                                                                ",
"                C.b.*.{ | | ] M @.V.                                                                                            ",
"              9XB.q.+.] { ] c j c M                                                                                             ",
"              8XM.*.o.N N N c j f c E                                                                                           ",
"                b.%.{ o.N N N g g v                                                                                             ",
"                s.%.} N v { { j j W                                                                                             ",
"                t.| M g f j x j v                                                                                               ",
"              B.%.c v v j f k j B                       - X . . O O # h                                                         ",
"            8Xm.} M g b g s k M O.                  n - O . . X X @ @ @ 7 $ d                                                   ",
"            8Xm.=.c [ s $ < N { E               < O X @ 7 % # & $ @ @ & % & & >                                                 ",
"            8X*.N c | v 0 , %.M E             s @ @ @ @ $ @ @ & @ @ @ O O $ $ $ 7                                               ",
"            7X+.f g [ c < = v g             ; @ @ @ @ @ @ @ X o X X O @ @ # % 7 & &                                             ",
"              B g f c c < - 1 I           d $ + @ @ @ O O o X X X X O = @ X @ X & $ 7                                           ",
"              n.c x g f f = 9 e         6X= @ % @ $ @ @ o o X o . X 9 p t & @ o @ & : r                 T                       ",
"                | g g f s = p 0         = @ @ $ % @ @ X X o o X . O O $ & @ @ @ $ 3 > r             ' T u T                     ",
"                b.v s f d 7 u h         = # & & @ o & @ o o + @ o X O $ O @ $ @ @ & 7 0 I           L I q i L                   ",
"              8X=.x R ] f d ..,.      R & $ & & @ & @ % @ : : X O o @ O X @ @ @ X & @ 0 r           : 0 7 u Y                   ",
"              7X} f Q =.x z D.D.<.    w $ $ & % & @ & O & & @ @ X o X o % O @ @ @ $ : 0 r _       T L 7 u L                     ",
"                B z   &.g z   G.4.    = @ $ & 1 : & & : @ % @ @ X o @ O @ @ @ @ & & q 9 0         P L u T                       ",
"                        V     H.5.    < @ % $ & @ 3 & $ $ q $ : o o 3 + @ & : 3 % @ 7 r e         C i L                         ",
"                              L.S.3.  < @ $ @ & q % 7 & : 7 3 3 % + 3 @ + : 7 7 @ 0 7 r r         D. .U                         ",
"                                G.6.  d @ & @ & & % & 7 : : 3 q 3 % 1 @ @ : 0 7 7 7 7 7 7       G.F.h.                          ",
"                                G.A.    = 3 & 1 @ & 7 & 3 % : 0 0 7 7 3 : 0 9 q 3 0 9 = u     S.G.x.                            ",
"                                L.S.3.  7 > @ > & & & & 3 & 9 e e e 0 0 3 3 0 q $ q 7 8 i     A.G.v.                            ",
"                                  G.<.y.> 7 > 3 1 @ & 7 q 7 0 7 0 e 0 0 7 q 3 @ % 7 7 q $.  3.A.x.                              ",
"                                  G.6.@.d 7 3 7 1 & 7 & q 7 > 7 0 u : : 9 9 : : % 7 7 r -.  1.x.v.                              ",
"                                  L.D.:.g 1 7 7 7 7 & & : q 3 q 3 : 7 q 7 7 7 : 7 > 9 r Q Q 1.x.                                ",
"                                  L.H.N.M w 0 7 > & & 3 7 : q 7 7 : 7 % 7 & @ % % @ 7 r i ..<.h.                                ",
"                                    H.7X&.z 7 7 7 & : q : + : $ : q > @ % # % % % 7 7 O.m ,.d.                                  ",
"                                    L.yX:.@.7 & % % @ & & @ $ @ & : % @ @ O O & & > q ;.X.1.d.                                  ",
"                                    I.wX7X#.8 & @ # @ & & O O + @ @ @ @ O O @ @ % & l q.2.<.                                    ",
"                                      tXu.#.w 8 7 > > & * * X * * X X * O O % @ $ > @.<.<.h.                                    ",
"                                      tXqX5X7.8 8 , > & : : $ X X * * X @ $ $ & $ , 0.<.d.                                      ",
"                                      tXP.<X1X> 0 8 , , : : : * @ X @ O @ & % = , Q d.d.g.                                      ",
"                                      eXP.3X>Xr.Z.c.l.l.w.0.9.9...C C m m h t l l d.d.d.l.                                      ",
"                                      eXP.qX/ ^.@X1XZ.F.G.G.G.G.G.F.A.l.y.>./ ( 8.4.j.z.Z.                                      ",
"                                      eXP.I.! / `.oX=X>X1Xp.i.i.p.r.@X'.}.! a ' z.j.f.4.l.                                      ",
"                                      eXP.I.#X).oX$X$X$X$XE.oX$X`.E.T.`.).J G -.j.j.f.z.k.                                      ",
"                                      wXL.I.-X`.oXoXoXE.oXE.E.E.T.T.].{.`.'.! e.c.j.f.d.l.                                      ",
"                                      wXP.I.,X&X$X$X%X%X{.[.`.`.`. X`.].R.T.Y.y.c.j.f.f.l.                                      ",
"                                      wXL.K.,X=X&X&X|.&X=X<X*X&X$X`.`.E.T.`.(.y.j.j.f.z.k.                                      ",
"                                      Z.L.K.*X=X&X$X X&X=X*X*X&X$X`.T.T.T.E.T.e.j.f.d.<.a.                                      ",
"                                      2X4X4X%X=X=X*XOX%X&X&XXXXX{.).{.$X[.[.{.e.a.0.9.$.Y                                       ",
"                                      ;X<X>X*X=X&X$XoX`.'.'.'.'.).T.[.XX_._.(.) ` /.^.W.)                                       ",
"                                      5XOX-X=X,X=X$XXXXX].R.R.(.T.XXXXXXXXXX!.Q.(.!.^.^ .X                                      ",
"                                      :X|.*X&X&XOX%XXX[.].].{.XX_._.[.XX[.(._.Q.W.!././                                         ",
"                                        #X@X|.{.OX&X&X{.[.|.+X[.[.(.'._._.+X+X/.J J / /                                         ",
"                                        5X@X}.).'.'.[.'.OX-X}.[.[.).[.).(.'.}.~.Q.^ ^                                           ",
"                                          .X/.^.!.!.!.!.~.)./.!.).W.).!.!.W.Q.Q.W.~                                             ",
"                                            .X^.Q.Q.~.^ K W./ Q.W.W.Q.^ K K ~ ^ ~                                               ",
"                                                ) ! H J K ~ ! ^ ^ J H F D F G                                                   ",
"                                                    G Z Z S a D .XS Z 5 5 Z                                                     ",
"                                                      S 5 6 2 2 2X4 Z Z A                                                       ",
"                                                      D 6 4 2 &   y S Z a                                                       ",
"                                                    q 1 @ @ @     u = 1 1                                                       ",
"                                                  Y u 0 9 % @ &   9 9 7 9 u                                                     ",
"                                                  T D u u U _ ' ' Y I D I L                                                     ",
"                                                                      U L                                                       ",
"                                                                                                                                "
};
