/* XPM */
static char *_8452a3b21cf43bfb1253042fb84544c[] = {
/* columns rows colors chars-per-pixel */
"64 64 228 2 ",
"   c None",
".  c #3D2E24",
"X  c #3C3529",
"o  c #3D3833",
"O  c #47351D",
"+  c #653F18",
"@  c #46392A",
"#  c #543F26",
"$  c #443B32",
"%  c #4C3D32",
"&  c #53421C",
"*  c #67491B",
"=  c #784C19",
"-  c #645A1A",
";  c #715116",
":  c #76621D",
">  c #594627",
",  c #4B4233",
"<  c #42403E",
"1  c #574938",
"2  c #544B30",
"3  c #684822",
"4  c #685A28",
"5  c #755A28",
"6  c #745630",
"7  c #6B542B",
"8  c #79652C",
"9  c #7B6837",
"0  c #696231",
"q  c #655A49",
"w  c #6D684A",
"e  c #7C6445",
"r  c #875516",
"t  c #9A650E",
"y  c #8B651B",
"u  c #9E6B13",
"i  c #996B19",
"p  c #966516",
"a  c #9A7618",
"s  c #8D701E",
"d  c #A46B0E",
"f  c #A76815",
"g  c #B36F16",
"h  c #A17417",
"j  c #AB7314",
"k  c #A67A16",
"l  c #AC7B16",
"z  c #A47C19",
"x  c #A5781C",
"c  c #B67315",
"v  c #BA7314",
"b  c #BB7C13",
"n  c #B47B15",
"m  c #BA740C",
"M  c #815A29",
"N  c #866927",
"B  c #977B26",
"V  c #896534",
"C  c #987B33",
"Z  c #8D712E",
"A  c #A07C23",
"S  c #A46E24",
"D  c #C87B0E",
"F  c #C27A11",
"G  c #D37F0A",
"H  c #876E48",
"J  c #887A4A",
"K  c #99784B",
"L  c #867255",
"P  c #998811",
"I  c #B89A09",
"U  c #AC851A",
"Y  c #AB8818",
"T  c #B38B15",
"R  c #B4831A",
"E  c #B48B1A",
"W  c #BA8A18",
"Q  c #AB9319",
"!  c #B89619",
"~  c #B68C0C",
"^  c #998327",
"/  c #9B863A",
"(  c #A28A25",
")  c #A78929",
"_  c #AC9322",
"`  c #B89827",
"'  c #A58C34",
"]  c #B49835",
"[  c #BDB023",
"{  c #CD820E",
"}  c #DA840B",
"|  c #D7890B",
" . c #C89909",
".. c #DD990E",
"X. c #CB8A12",
"o. c #C48314",
"O. c #D38C14",
"+. c #D28613",
"@. c #C79817",
"#. c #DB9413",
"$. c #DC9B13",
"%. c #D8951A",
"&. c #E38C05",
"*. c #E28D0A",
"=. c #E78C04",
"-. c #EB9304",
";. c #EE9A04",
":. c #E3940B",
">. c #E59C0E",
",. c #EB9C0C",
"<. c #E79104",
"1. c #F19D03",
"2. c #E49B12",
"3. c #C8A90A",
"4. c #D8AC0C",
"5. c #DBB508",
"6. c #C9A214",
"7. c #CCAA1C",
"8. c #C7A416",
"9. c #D6AD14",
"0. c #DBA51B",
"q. c #D7A816",
"w. c #CFB717",
"e. c #DDB313",
"r. c #D3B01D",
"t. c #DCB71A",
"y. c #EEA304",
"u. c #ECA805",
"i. c #E3A60E",
"p. c #EBA30A",
"a. c #ECAB0C",
"s. c #E6AE0D",
"d. c #F2A303",
"f. c #FBA602",
"g. c #F5AB04",
"h. c #FDAD02",
"j. c #F2A40A",
"k. c #F3AB0C",
"l. c #FAAA0A",
"z. c #EBB504",
"x. c #EDBB05",
"c. c #E1B40C",
"v. c #EDB40C",
"b. c #ECBC0D",
"n. c #E5B807",
"m. c #F5B304",
"M. c #FBB202",
"N. c #F6BC02",
"B. c #F9BA02",
"V. c #F2B409",
"C. c #FCB308",
"Z. c #F3BC0A",
"A. c #FCBC0B",
"S. c #ECA412",
"D. c #E4AD14",
"F. c #E7A817",
"G. c #F4AC15",
"H. c #E4B314",
"J. c #EDB312",
"K. c #E3BB14",
"L. c #EDBB13",
"P. c #E6B71A",
"I. c #F1BE16",
"U. c #F3B419",
"Y. c #F7BD16",
"T. c #C78B26",
"R. c #C89221",
"E. c #E09F20",
"W. c #CBAA23",
"Q. c #C7A628",
"!. c #D2AA21",
"~. c #CFAD2D",
"^. c #E8BD29",
"/. c #D0C417",
"(. c #EBC30D",
"). c #E9C60A",
"_. c #F5C305",
"`. c #FDC504",
"'. c #F4CB07",
"]. c #FECE03",
"[. c #F4C50C",
"{. c #FCC10D",
"}. c #F4CB0D",
"|. c #FBCE0C",
" X c #FDD203",
".X c #FAD904",
"XX c #FDD10C",
"oX c #F7D60B",
"OX c #ECC311",
"+X c #E5C41A",
"@X c #F1C513",
"#X c #F6C914",
"$X c #FBCD12",
"%X c #F2C31A",
"&X c #FDC41B",
"*X c #FDD113",
"=X c #FCD21C",
"-X c #FAD916",
";X c #E9C327",
":X c #F5CC21",
">X c #FCCB29",
",X c #FCD324",
"<X c #FCD42D",
"1X c #FDD82F",
"2X c #FED634",
"3X c #FDD835",
"4X c #FED73B",
"5X c #FDD93C",
"6X c #F5D038",
"7X c #F1CC34",
"8X c #9F8052",
"9X c #AA8958",
"0X c #BD965D",
"qX c #8A8562",
"wX c #AC9268",
"eX c #B79663",
"rX c #C99B59",
"tX c #D4A85E",
"yX c #C39B65",
"uX c #D7B377",
"iX c #C7A46F",
"pX c #FDDA43",
"aX c #FDDD4C",
"sX c #FCDF51",
"dX c #FCE254",
"fX c #FBE459",
"gX c #FBE04E",
"hX c #DABA81",
/* pixels */
"                                                                                                                                ",
"                                                                                                                                ",
"                                                                                                                                ",
"                                                                                                                                ",
"                                                                                                                                ",
"                                                                                                                                ",
"                                                                                                    L L                         ",
"                                                                                                  L 0X0XK 9XK                   ",
"                                                                                                q 8XuXuXyXH M                   ",
"                                                                                                , V wXhXyX9X3                   ",
"                                                                                                L iX9XuXyXeX* 6                 ",
"                                                                                                wX9X9XtXyX9X* 3                 ",
"                                                                                              q wXrXeXK 9X6 * @                 ",
"                                                                                                q 9 4 4 V ( P -                 ",
"                                                                                                  9 Y a _ w.I :                 ",
"                                                                                                  J Q.!.^ /. .a X               ",
"                                                                                                  J ] ;Xs [  .~ &               ",
"                                                                                                  Z _ (.l Q 5. .P X             ",
"                                                                                                  Q.Q (.W z n.5.3.- <           ",
"                                                                                                C t.@.x.O.k n.z.z.6.O           ",
"                                                                                              ) K.a #Xm.2.U '.z.z.z.@..         ",
"                                                                                            ' +X9.@.|.u.X.E  XZ.m.z.x.y o       ",
"                                                                                          Q.oX(.Y oX_.y.d 8. XA.M.m.x.v.>       ",
"      w Z !.+XP.r.Q.                                                                    r.oX|.R e..XV.y.a (. XN.m.m.N.N.k o     ",
"      0 Q.b..X.X X].|.P.]                                                           / t..X|.%.6..X|.d.:.Y oX XN.m.m.N.N.i.O     ",
"    q N 8.4.(. X.X.X X]. X}.W.                                                    ` }..X|...E XX.XV.d.b 9..X Xm.g.m.N.N.m.;     ",
"      8 Q c.Z.{.{.`.].]. X X XOXW.'                                           / 7.XX.X|.k.R }..X_.p.:.p [. X Xg.g.B.N.N.B.x     ",
"        8 Y.{.C.h.h.C.B.`.]. X].].|.t.`                                   ' W.}.oX-X{.k.k (..X'.m.O.+.E ]. X Xj.g.m.N.Z.B.%.$   ",
"        1 U.A.h.h.h.h.h.h.M.`.]. X X X|.K.W.'                         ] W.OX*XoX=XY.k.R K. X.XZ.p.O.n K.XXXX`.d.g.m.N.N.M.$.1   ",
"          B {.A.h.h.f.f.h.f.h.M.`.]. X X X X].|.P.Q ( ( B B ^ ( _ r.$X|.=X1X-X&Xl.l.l 9. X.X_.g.#.%.h *X3X<XN.d.M.N.N.v.M.#.1   ",
"          , 0.A.h.d.1.1.1.d.f.f.h.h.B.`.].].]. X X X].]. X X].XX*X,X2X4X2X&XC.f.2.R K. X.X_.g.>.O.b @.2XpX,Xg.g.M.N.Z.0.C.O.,   ",
"            N J.l.1.-.-.-.;.1.d.f.f.h.h.M.B.`.`.].].].].].].|.,X<X<X>XY.C.h.j.X.T K.XX.X[.j.d.#.O.y :XpXpX$Xd.g.M.N.v.@.h.o.,   ",
"    qXB r.+X8.7.@.W b | <.-.-.;.;.1.d.f.f.h.f.h.h.h.M.M.M.M.M.C.h.h.h.f.j.X.l 9.|.=X-X[.u.d.,.%.n 7.2XpX,XZ.d.M.B.N.D.$.g.i     ",
"    w 4 I )..X X|.(.9.@.n v | <.<.-.;.;.1.d.d.f.f.f.f.f.f.f.f.f.d.j.j.o.l @.OX*X<X<XL.a.d.d.;.O.h =XaXpX$Xg.g.M.B.V.0.2.j.;     ",
"    4 ! c.3.z.]. X X X X].@X6.x p f +.*.<.-.-.-.;.;.1.1.;.;.,.#.j p U K.|.*X<X5X,XJ.k.d.1.d.-.d q.5XdX,XZ.g.h.m.N.v.R.G.:.O     ",
"    ] v.z.u.y.g.N.].].].].].].].|.K. .T l l j j j j j j l l T ! e.$XXX=X<X4X<XI.a.k.g.d.d.;.b ! <XdX5X|.j.g.M.B.Z.D.T.j.b $     ",
"      e.N.d.d.d.y.m.`.].].].].]. X X X X].|.|.#X@XOX@X$X$X|.|.XX=X,X3X4X<XI.J.u.m.g.d.d.;.{ a :XpXaX=Xm.g.M.B.N.v.0.R.j.y       ",
"      ) N.m.d.d.y.d.d.g.V.`.].].XX*XXXXXXXXXXXXX*X*X=X,X,X<X2X4X2X<X%XJ.u.a.m.h.d.d.1.-.{ h :XpXsX,XZ.d.h.M.B.N.s.E.>.2.#       ",
"        q.Z.d.d.y.y.h.h.g.g.V.Z.[.=X,X<X2X4X4X4X4X4X4X4X2X<X,X%XJ.a.k.g.h.h.g.d.d.;.<.{ i +XpXgX3X[.y.g.M.B.N.Z.i.%.d.p $       ",
"        9 Z.m.d.y.d.d.h.M.M.M.m.g.g.v.v.J.L.I.%X%XI.L.J.a.a.u.g.M.M.M.h.g.y.d.;.-.=.f U ,XaXsX2X#Xp.g.M.B.N.N.V.%.>.>.@         ",
"          B V.j.d.y.d.d.g.M.M.M.M.M.M.M.m.m.m.m.m.g.m.m.M.M.M.M.h.g.g.d.d.1.;.*.F h 7.<XdXsX2X%Xi.g.h.B.B.B.B.k.%.>.y           ",
"            U V.d.1.d.d.d.d.g.h.M.M.M.M.M.M.m.M.M.m.M.M.M.h.g.g.d.d.d.;.;.&.D u U ;X5XfXaX2X%Xi.j.M.M.N.N.B.B.S.#.X.X           ",
"              a a.d.y.d.d.d.y.d.d.d.g.g.g.g.g.g.g.g.g.g.d.d.d.1.;.;.:.D d a ` ;XpXdXfXpX,XP.>.g.M.B.N.N.N.B.h.#.2.*             ",
"                s a.d.y.y.,.p.y.d.d.y.d.d.d.d.y.d.d.d.;.;.-.:.| m t i ) ~.7XpXdXfXsX2X:X0.>.g.M.B.B.N.N.B.M.d.,.i ,             ",
"                  > @.a.>.5 B @.W E U k h u u u u t p p i x U ! ^.6X5XpXaXfXfXaX2X=Xe.$.j.h.M.B.B.B.B.B.C.g.d.n $               ",
"                    , 5 C 0 8.x.N.]. X X|.|.|.|.|.|.$X=X<X2X4XpXpXaXsXdXaX4X<X%XH.$.p.g.h.M.B.N.N.B.B.h.g.d.O.>                 ",
"                        , 4 I 4.4.Z.}..X.X X X X X X*X2X4X5X4X4X2X2X<X=X#XP.q.>.d.g.h.M.B.N.N.N.B.M.h.d.d...O                   ",
"                        1 Q 3.c.c.a.D.D.H.b.(.).'.'.|.|.|.$X}.[.b.L.D.F.i.p.d.h.h.M.B.B.Z.N.Z.M.C.g.d.j.X.3                     ",
"                          ] t.P.D.F.F.F.S.j.y.p.p.y.u.u.u.u.p.p.p.y.d.g.f.h.h.M.B.B.N.N.^.I.U.U.G.S.F.T.e                       ",
"                          H ^.j.S.S.G.S.k.M.M.M.M.h.M.h.h.h.h.h.M.M.h.h.M.M.B.N.N.N.N.Z.U.k.G.j.p.2.S 1                         ",
"                            8 a.d.d.d.d.g.M.M.M.M.M.M.M.M.M.M.M.M.M.M.B.B.N.N.N.B.B.M.M.h.f.d.;.| r $                           ",
"                              s p.d.d.d.g.M.h.h.h.h.h.h.h.h.h.h.h.M.B.N.N.B.M.M.M.M.h.f.d.;.*.g &                               ",
"                                N #.d.d.d.f.h.h.h.h.h.h.h.h.h.h.h.M.M.M.M.M.h.h.h.f.d.;.*.F = %                                 ",
"                                  6 n -.1.d.g.f.h.h.h.h.h.h.h.h.h.h.M.M.M.h.f.d.1.<.&.D r >                                     ",
"                                      3 F *.;.1.d.f.f.h.h.h.h.h.f.f.f.f.1.<.&.} } v + .                                         ",
"                                        , 3 p v } *.=.<.<.<.<.=.&.&.&.} G F f = # $                                             ",
"                                              $ O * r f g c c c g f r + O . o                                                   ",
"                                                        $ % @ $ X                                                               ",
"                                                                                                                                ",
"                                                                                                                                ",
"                                                                                                                                ",
"                                                                                                                                ",
"                                                                                                                                ",
"                                                                                                                                "
};
