/* XPM */
static char *f8e0d635469d41b4eefc98daf2ab5a5evqJ1onkFHKTWrXXx[] = {
/* columns rows colors chars-per-pixel */
"64 64 229 2 ",
"   c None",
".  c #0B0B0B",
"X  c #080707",
"o  c #120E0D",
"O  c #14110E",
"+  c #1A110F",
"@  c #141213",
"#  c #1A1615",
"$  c #1D1B1B",
"%  c #1B1819",
"&  c #231A15",
"*  c #231C1A",
"=  c #2A1E19",
"-  c #291813",
";  c #321C19",
":  c #321B16",
">  c #2C221D",
",  c #26201E",
"<  c #34241C",
"1  c #3C231D",
"2  c #38291E",
"3  c #39311B",
"4  c #1B1E21",
"5  c #111D29",
"6  c #221E20",
"7  c #1A2129",
"8  c #192A3B",
"9  c #242424",
"0  c #2B2423",
"q  c #2B2B2B",
"w  c #272727",
"e  c #352A23",
"r  c #3C2B23",
"t  c #372926",
"y  c #37312E",
"u  c #212D3A",
"i  c #343434",
"p  c #3D3C3B",
"a  c #3C3A37",
"s  c #2B2F37",
"d  c #4A271E",
"f  c #422D22",
"g  c #4A2C26",
"h  c #532C22",
"j  c #592F23",
"k  c #453125",
"l  c #4C3526",
"z  c #43332B",
"x  c #4A352A",
"c  c #4C3A2E",
"v  c #5B3124",
"b  c #543C2C",
"n  c #583B2B",
"m  c #4B3B33",
"M  c #463733",
"N  c #583E33",
"B  c #633526",
"V  c #6C3C2B",
"C  c #63382A",
"Z  c #6F3D31",
"A  c #4B401D",
"S  c #5C422E",
"D  c #564425",
"F  c #5D4232",
"G  c #5C463A",
"H  c #594637",
"J  c #584C2B",
"K  c #624632",
"L  c #644B3A",
"P  c #6A4E3B",
"I  c #674A36",
"U  c #794531",
"Y  c #7A4B38",
"T  c #6C513C",
"R  c #665437",
"E  c #72543C",
"W  c #77573B",
"Q  c #6F512C",
"!  c #766633",
"~  c #1D2E41",
"^  c #1F3248",
"/  c #243345",
"(  c #323C45",
")  c #38424A",
"_  c #2D4359",
"`  c #36475A",
"'  c #364E66",
"]  c #3B556D",
"[  c #3C5A77",
"{  c #454444",
"}  c #4C4B4B",
"|  c #484848",
" . c #4E4F50",
".. c #545252",
"X. c #5B5B5B",
"o. c #50514D",
"O. c #6C5341",
"+. c #6A5644",
"@. c #735443",
"#. c #7C5D43",
"$. c #7B5D4B",
"%. c #775846",
"&. c #7B574B",
"*. c #7E6347",
"=. c #47596C",
"-. c #445B73",
";. c #465C74",
":. c #4C647C",
">. c #42607D",
",. c #596977",
"<. c #56666D",
"1. c #676769",
"2. c #707376",
"3. c #834D36",
"4. c #804531",
"5. c #8C533B",
"6. c #93573C",
"7. c #825F2D",
"8. c #897733",
"9. c #917936",
"0. c #956B30",
"q. c #A2732F",
"w. c #8B5942",
"e. c #985F43",
"r. c #83654B",
"t. c #816554",
"y. c #876B55",
"u. c #8D725C",
"i. c #957359",
"p. c #946D4A",
"a. c #A56849",
"s. c #A77855",
"d. c #B67956",
"f. c #A66E51",
"g. c #927A63",
"h. c #937B67",
"j. c #9C8739",
"k. c #A48B3A",
"l. c #A9933D",
"z. c #B98938",
"x. c #CD9B3B",
"c. c #C79438",
"v. c #C89233",
"b. c #D6A23A",
"n. c #D7A83F",
"m. c #E9B83C",
"M. c #928353",
"N. c #B59840",
"B. c #A78243",
"V. c #BBA243",
"C. c #998767",
"Z. c #918479",
"A. c #B98261",
"S. c #A6976B",
"D. c #AEA779",
"F. c #C79D45",
"G. c #C0845F",
"H. c #C5A745",
"J. c #D2A545",
"K. c #D6AA46",
"L. c #D7AA49",
"P. c #DDB34B",
"I. c #D7B15A",
"U. c #D1B059",
"Y. c #E5B74D",
"T. c #E2B750",
"R. c #C78D67",
"E. c #D49C73",
"W. c #CA9671",
"Q. c #D1A870",
"!. c #EEC44B",
"~. c #F4C949",
"^. c #F2CA52",
"/. c #F9D153",
"(. c #F9D55B",
"). c #EDC552",
"_. c #F9D666",
"`. c #F9DB75",
"'. c #E7CE73",
"]. c #DDC876",
"[. c #365E81",
"{. c #3D6487",
"}. c #3C6B94",
"|. c #3F6F99",
" X c #3E719B",
".X c #436485",
"XX c #4B6683",
"oX c #44698B",
"OX c #476889",
"+X c #566D86",
"@X c #597289",
"#X c #436D94",
"$X c #486F93",
"%X c #467196",
"&X c #4B7294",
"*X c #44729A",
"=X c #4A759B",
"-X c #4D789C",
";X c #53799A",
":X c #69798B",
">X c #4C7BA3",
",X c #487BA4",
"<X c #527DA3",
"1X c #597EA0",
"2X c #68839B",
"3X c #778493",
"4X c #5481A6",
"5X c #5483AB",
"6X c #5A86AB",
"7X c #5C8AB1",
"8X c #4F81A9",
"9X c #6388A6",
"0X c #7793AB",
"qX c #7091AE",
"wX c #939894",
"eX c #B0AE8E",
"rX c #849BAC",
"tX c #95A6A1",
"yX c #DEB790",
"uX c #D1B48A",
"iX c #E4B693",
"pX c #EBBE99",
"aX c #E1B28F",
"sX c #CFC48D",
"dX c #F7DA8A",
"fX c #F8DF95",
"gX c #E4D497",
"hX c #F9E198",
"jX c #ECC2A0",
/* pixels */
"                                                                                                                                ",
"                                                                                                                                ",
"                                                                                                                                ",
"                R.w.f.jXiXyX                                                                                                    ",
"                6.w.W.E.R.R.G.                                                                                                  ",
"                d.E.R.d.d.f.e.e.                                                                                                ",
"                E.W.d.f.e.6.4.V a.eX                                                                                            ",
"              pXE.d.Q.W.6.5.V B V U                                                                                             ",
"              iXE.d.yXuXY 5.S B h V &.                                                                                          ",
"                R.a.A.s.U s.p.j h B                     q q q w q q a o.                                                        ",
"                G.a.5.3.C s.s.v v $.                9 % @ X . o . o @ # $ q                                                     ",
"                G.6.Z v h v B v V               i $ % @ o . . . . o . @ @ * q p                                                 ",
"              E.a.V C B v h v n @.            w @ . . . @ + + o @ . o O o . # 0 ..                                              ",
"            iXR.5.U v Z j d j U w.            9 @ . X . o @ @ o @ o o O o . @ 0 ..                                              ",
"            iXW.f.V 4.d & > Y 5.%.          4 @ X . - f b n H z f r f c k - + . * {                                             ",
"            iXd.3.V 6.C q > a.U %.        q @ o + d S P T $.y.y.y.O.P P P S l & @ q                                             ",
"            uXe.h v 4.V t = C j         ( @ . o k K Q W r.u.u.h.h.t.r.*.W W P c O % i                                           ",
"              U j h Z B ; & 6 |         * o . < S E W #.p.g.h.C.C.g.g.y.p.#.W T 2 @ * o.                                        ",
"              W.V B j d h * 9 y       q o X @ c P E @.w.r.u.h.g.g.h.h.y.*.*.$.%.L + @ a                 X.                      ",
"                w.B j h g = i q       9 . X # H P T T O.+.%.y.t.$.y.$.%.+.%.$.%.L & . *             2...i ..                    ",
"                R.B d h d 0 i h       9 . . $ m m t 0 q 0 t N L +.G M y 6 * t N H = X @ o.          { | w p |                   ",
"              iXd.B I 3.d y 0.z.      % o . $ % * @ % i 9 $ w % % % y s * % # 6 * @ X o {           4 w 9 i X.                  ",
"              uX3.h t.f.B N ).^.x.    9 . . 9 > # # % q 4 * 0 m m < 9 q # $ % & q q . . }         X.{ 7 i |                     ",
"                &.N   f.B N   /.n.    9 X X r > * @ # 6 6 0 z t.$.g 0 9 % $ # q y t . . o.        } H s ..                      ",
"                        L     /.m.    t X @ H c c 3 r r k r c y.y.L e f r r z m M H . o ..        r.p {                         ",
"                              _.~.b.  { # & G K b l c x k 1 P i.i.t.f g f x x c +.G # 0 2.        ).9.}                         ",
"                                /.m.  M = e L L T P I K N N I @.@.@.L N I P O.O.O.O.= y 2.      /.^.L.                          ",
"                                (.m.    z M G R P E E E F d - ; : ; 1 N O.@.@.O.L O.z m r.    ~./.Y.                            ",
"                                _.~.b.U.x z H +.O.T @.@.%.l r < ; t f P E %.&.O.O.+.z %.c.    !./.T.                            ",
"                                  /.x.S.N e H L L T T T P n g g z f f P P I P P P H y z.c.  b.!.Y.                              ",
"                                  /.n.Z.+.= r S K K I l < < - ; ; : r 1 x L L K G x m v.9.  x.Y.T.                              ",
"                                  _.~.wX+.$ > z b N b - - 1 g g g g - + - c c N c t R 0.{ r.v.Y.                                ",
"                                  _._.eXD.! & > r k f k D h : - - ; f g < l x x 3 < 7.| ( 0.x.L.                                ",
"                                    (.sX3XH.$ $ > < k b F n k r r f l n h r < r < D H ` D z.b.                                  ",
"                                    `.gX0XU.3 @ & = < D T T T T P I I K l 3 > > , Q ` o.0.v.J.                                  ",
"                                    `.hXtXD.! . O O & z b D D A n N N x > & # @ 8.M.` k.v.x.                                    ",
"                                      hXeXrXV.A X . o + & & > > > , * # o O o 3 V.' y.x.x.L.                                    ",
"                                      hXgX0X].l.! . X X . . O O O O . . X . Q V.<.=.z.n.J.                                      ",
"                                      hX`.qXwXl.j.j.9.O . X . . X X . . @ k.j.o.>.M.J.J.L.                                      ",
"                                      hX`.eX0XM.8.j.8.O . X . . X X . . O k.j._ ,.b.K.J.I.                                      ",
"                                      hX`.sX>.@Xo.j.V.V.j.l.! J J A ! l.n.j._ [ M.P.K.H.I.                                      ",
"                                      fX`._.<.:. X' l.j.j.l.j.l.l.V.V.l.J ) ^ <.H.Y.P.K.I.                                      ",
"                                      fX`.'.2XoX,X8X=XoXoX>.{.{.>.[ [ {.oX=.) M.P.P.K.J.I.                                      ",
"                                      fX_.'.9X%X8X8X=X X8X X X X}.}. X,X X}.-.S.T.P.K.J.I.                                      ",
"                                      dX`.'.7X5X8X8X-X4X-X=X%X%X X8X X8X{.}.>.S.).P.K.J.I.                                      ",
"                                      dX_.].7X7X5X5X4X5X7XqX7X5X8X}. X X}.}.|.S.P.K.K.J.U.                                      ",
"                                      U._.].9X7X5X5X-X5X7X7X6X4X8X%X}.{.}.}.{.C.P.L.J.H.F.                                      ",
"                                      wXeXeX4X7X7X5X<X4X8X5X>X>X4X>.8X8X8X%X4XC.H.N.B.p.X.                                      ",
"                                      0XqXqX7X7X5X8X,X%X&X&X&X&X$X#X*X>X*X*X$X,.2.@X+X.X,.                                      ",
"                                      0X1X6X7X7X7X5X,X-X*X|.|.*X#X>X>X>X>X<X[.XX#XoX+X;.:X                                      ",
"                                      0X;X2X5X5X4X4X>X=X=X*X>X,X#X*X=X>X=X=X*XXX[.oX@X:.                                        ",
"                                        3X9X>X-X<X5X5X-X=X;X;X=X=X#X*X#X#X1X1X@X] -.:.XX                                        ",
"                                        rX1X&X$X&X&X-X&X<X9X;X&X=X=X=X$X#X&X;XXXXXXX;.                                          ",
"                                          3X@X+XoXoX.XOXOX$X+XOX#X.XOXOXoX[.XXXX.X=.                                            ",
"                                            :X+XXXXXXX.X[ .X:.XX.X{.OX.X[ [ -.;.=.                                              ",
"                                                ,.=.' ' ] ;.=.:.;.] ' ( ( _ `                                                   ",
"                                                    ` 8 ~ ^ u ( 3X/ ~ 8 ~ ~                                                     ",
"                                                      / 8 8 5 7 wX5 ~ ~ ^                                                       ",
"                                                      ) 8 7 5 $   u / ~ u                                                       ",
"                                                    7 7 @ @ @     i 6 4 7                                                       ",
"                                                  X.a w w % @ %   w w 9 9 i                                                     ",
"                                                  ..p a i  .1.2.2.X.{ p | |                                                     ",
"                                                                       .|                                                       ",
"                                                                                                                                "
};
