/* XPM */
static char *e912ac4fccdc443a95f9e2e478698136[] = {
/* columns rows colors chars-per-pixel */
"64 64 231 2 ",
"   c None",
".  c #0D0E09",
"X  c #0A0A06",
"o  c #150606",
"O  c #0F100B",
"+  c #12130D",
"@  c #19100D",
"#  c #1A1B15",
"$  c #191A14",
"%  c #291614",
"&  c #1E201B",
"*  c #23231C",
"=  c #2D271E",
"-  c #36271A",
";  c #2A2C26",
":  c #282925",
">  c #372E24",
",  c #38322A",
"<  c #383934",
"1  c #2D3432",
"2  c #4A3829",
"3  c #58392B",
"4  c #4D3631",
"5  c #613D32",
"6  c #3E423C",
"7  c #47433A",
"8  c #5A4738",
"9  c #5A4B33",
"0  c #6A4839",
"q  c #76533E",
"w  c #714E3A",
"e  c #374D50",
"r  c #474945",
"t  c #4C524A",
"y  c #57544B",
"u  c #585A55",
"i  c #4D4F4F",
"p  c #645749",
"a  c #775A48",
"s  c #645C56",
"d  c #704753",
"f  c #736955",
"g  c #425C61",
"h  c #785E65",
"j  c #4A646A",
"k  c #4E6A72",
"l  c #556D74",
"z  c #59737A",
"x  c #5B6662",
"c  c #666968",
"v  c #6A7676",
"b  c #777777",
"n  c #75726A",
"m  c #A93278",
"M  c #8E3666",
"N  c #865947",
"B  c #976B54",
"V  c #916E54",
"C  c #A6775D",
"Z  c #90506F",
"A  c #A9537D",
"S  c #88786B",
"D  c #987D75",
"F  c #8A6E70",
"G  c #A87B64",
"H  c #AC7A68",
"J  c #C3417E",
"K  c #7A817A",
"L  c #96885C",
"P  c #B18E50",
"I  c #878479",
"U  c #97887B",
"Y  c #92866B",
"T  c #B88868",
"R  c #AA8877",
"E  c #B88B75",
"W  c #B9977B",
"Q  c #B1916D",
"!  c #BAA574",
"~  c #ABA37B",
"^  c #D5A84C",
"/  c #E6B555",
"(  c #C89877",
")  c #D29D78",
"_  c #C48F6D",
"`  c #C9A776",
"'  c #D6A37D",
"]  c #CAAD6E",
"[  c #E2AD62",
"{  c #6E7E84",
"}  c #BA3C87",
"|  c #B8598A",
" . c #B65389",
".. c #967789",
"X. c #9C768C",
"o. c #B37296",
"O. c #C84689",
"+. c #C8598D",
"@. c #DC4B9C",
"#. c #D94897",
"$. c #C85792",
"%. c #DD539D",
"&. c #DB589C",
"*. c #D4468C",
"=. c #E1529C",
"-. c #CF6998",
";. c #DE5CA1",
":. c #E05BA2",
">. c #DB67A5",
",. c #D777AA",
"<. c #CE7CA9",
"1. c #E163A5",
"2. c #E26DAA",
"3. c #E168A7",
"4. c #E274AE",
"5. c #E276AB",
"6. c #E27BB2",
"7. c #E277B0",
"8. c #738990",
"9. c #98978A",
"0. c #979796",
"q. c #8C8D8E",
"w. c #A89888",
"e. c #B79C89",
"r. c #A78D94",
"t. c #A8A699",
"y. c #B9A993",
"u. c #929BA1",
"i. c #A69BA5",
"p. c #B794AA",
"a. c #AC8EA2",
"s. c #9AA2A5",
"d. c #97A9B0",
"f. c #ACA4AC",
"g. c #A7A6A9",
"h. c #B5B4A7",
"j. c #B3ABB3",
"k. c #BBAAB7",
"l. c #B3B3B6",
"z. c #B6B3B8",
"x. c #BAB4BB",
"c. c #BAB9BC",
"v. c #AAABB0",
"b. c #CA9884",
"n. c #CD8E86",
"m. c #CAA787",
"M. c #DCAB84",
"N. c #D8AA88",
"B. c #D9B88A",
"V. c #C9A997",
"C. c #D9B696",
"Z. c #CCB48D",
"A. c #E6B68D",
"S. c #E3B593",
"D. c #ECBC94",
"F. c #E9BA99",
"G. c #E2A992",
"H. c #D08EB3",
"J. c #E283B6",
"K. c #E388B9",
"L. c #E293BE",
"P. c #E89EB2",
"I. c #E593A5",
"U. c #C7BDA9",
"Y. c #C3B7BC",
"T. c #CFADB2",
"R. c #E8B2AA",
"E. c #DAC690",
"W. c #EDC39C",
"Q. c #E9C398",
"!. c #F1C79E",
"~. c #C8C5B7",
"^. c #D8C8BA",
"/. c #D0C5AE",
"(. c #EBC7A4",
"). c #F1CBA4",
"_. c #F2CEA9",
"`. c #F0C6A2",
"'. c #F2D3AC",
"]. c #F3D5B1",
"[. c #F3D9B5",
"{. c #ECD1B1",
"}. c #BEBBC1",
"|. c #E399C2",
" X c #DAABC6",
".X c #C2BBC3",
"XX c #C8BBC8",
"oX c #D2AFC6",
"OX c #E5ACCD",
"+X c #E5A4C8",
"@X c #E5B4D1",
"#X c #E6BBD5",
"$X c #E5B1CE",
"%X c #BDC2C6",
"&X c #CBC3CC",
"*X c #C6C7C9",
"=X c #D9D7C6",
"-X c #CDCAD2",
";X c #D1CCD3",
":X c #D8CBD8",
">X c #CCD3D5",
",X c #D4D3DB",
"<X c #D9D7DC",
"1X c #D4CDC6",
"2X c #E6D7C7",
"3X c #E6C4D9",
"4X c #ECDDCE",
"5X c #E9E7D6",
"6X c #EDE5D3",
"7X c #DCD6E1",
"8X c #DDDBE3",
"9X c #DBDAE6",
"0X c #E2DDE5",
"qX c #E7DAE6",
"wX c #F1DAE8",
"eX c #EDCCE0",
"rX c #E5E3EB",
"tX c #EAE5ED",
"yX c #EAE9EE",
"uX c #E7E6E5",
"iX c #F3E6EA",
"pX c #EDEBF2",
"aX c #E8E7F0",
"sX c #F2EEF4",
"dX c #F3E9F2",
"fX c #F3F1F6",
"gX c #F6F6F9",
"hX c #F7F8FA",
"jX c #FAFBFC",
"kX c #F8F7F9",
"lX c #F2F0ED",
/* pixels */
"                                                                                                                                ",
"                                                                                                                                ",
"                                                                                                                                ",
"                                                                                                          ,X*Xz.v.g.l.>X        ",
"                                                                                                        -Xl.q.c c v 0.%X%X      ",
"                                                                      c r 1 : ; 1                       g.n < ; < t v 0.c.-X    ",
"                        3X#X3X3X3X                              u r r r 7 , * # # # : <               K u ; $ + # : < u 0.c.    ",
"                      #X@X+XOXOXOX$X@X@X3X                    r 7 > > , 2 7 < : $ . + & 1           8.r : + O . . . # < c s.*X  ",
"                  3X@X+XL.K.K.K.L.L.L.|.OX#X3X3X3X          < 8 a q q q 0 8 7 , * + + . $ : r       t ; # + . X X . $ < n s.*X  ",
"                3XOX|.J.4.2.2.7.7.4.4.7.K.|.+XOX@X3X      u p C T _ _ _ T B N w 4 = # . . O & r b r ; & # + . X . + * r q.l.>X  ",
"              qX#X|.6.2.3.:.1.3.3.3.1.3.4.6.K.L.+XOX#X3Xk.F R _ ` m.' ' ' ' ( T B 0 , & + . + # r : * & $ + . + # ; r v g.%X    ",
"              qX#XL.4.1.=.#.%.:.:.&.%.;.3.2.7.J.K.|.|.+XP.T.m.y.U./.U.m.' M.A.A.M.E a 2 * $ . + + & * # + # & : < u b s.*X>X    ",
"                @XL.4.&.#.#.=.%.@.#.#.%.:.3.2.4.7.6.J.K.P.R.V.1X=X^.=X^.m.' A.W.).W.( w > * + . . O $ # ; r                     ",
"              3XOXJ.3.&.#.#.=.@.#.#.@.%.;.:.1.3.3.2.6.K.P.F.C.^.w.a S y.` M.Q.`._.).S.T 0 > * O . X # r                         ",
"              3X+X7.;.#.*.*.%.&.#.@.@.%.%.@.=.=.:.3.7.K.I.F.F.C.w - , a ( D.W.)._.`.W.A.Q 8 , * . X *                           ",
"              #X+X6.;.*.J O.;.>.@.@.@.#.#.@.@.@.@.;.5.I.G.A.D.W.T 3 9 L M.Q.`.).!.D.D.D.S.Q 2 4 $ + + r                         ",
"            Q.(.R.I.-.+.| -.J.$X+X7.;.@.@.#.#.#.@.&.,.I.G.M.A.!.W.A.A.D.D.!.W.W.(.C.B.D.W.S.C w , # $ 1 c                       ",
"        ] ^ / / / / / [ M.^.wXtXqXwXOX>.} m m } O.+.-.n.b._ ) D.D._ A.!.`.(.C.e.e.~.2XC.F.W.B.C 8 , # & 6                       ",
"          ] ^ ^ ^ ^ ^ ^ ] ^.kXfX0XrXiX Xo.A M M M A n.n.E B _ A.D.) ' A.`.(.W a 8 I 1X2XC.`.(.) w 7 ; # 6                       ",
"              ` Q P P P w.=XkXhX8X8XfXiX:Xk.X.F Z C n.b.C 0 G M.Q.D.D.W.'.'.W 9 > f ~.uX/.)._.Q.B 8 7 * <                       ",
"              t.t.w.w.w.0.~.uXfX;X,XfXhXpX0X&Xk.r.R E E N 2 F E B.!.`.).'.'.F.L 8 I 5XlX{._.'.).H 8 t , 1                       ",
"                f.f.z.c.}.&X<XrX,X-XrXpXsXsXyX8X&Xy.E G 0 % 4 D e.C.`.).).).`.C.V./.6X6X{.'.'.).E 3 y r <                       ",
"              z.l.c.*X,X8XrXyXyXyX<X8XrXpXpXfXpXqXY.R C 3 o % 4 n e.V.S.S.D.W.`.{.[.4X[.'.'.'.)._ 3 y u 7                       ",
"              z.z.*X,XrXyXsXhXhXhXpXrXrXrXrXpXsXyX&Xw.C 5 o o o : s U R ( M.A.W._.].[.[.].'.'.)._ 3 7 u t                       ",
"              z.x.-X<XrXpXfXhXhXhXhXpX7X7X9XpXsXpX-Xw.G V 4 % o X & y a C ( A.D.).'.].[.[.].'.`.H - < r i                       ",
"            x.z..X;X8XyXfXhXkXhXhXhXrX,X7X0XpXpXpX<Xf.D E H d % o @ 4 N H ( A.D.`.).'.].].'._.W.a @ 1 < y                       ",
"            z.z.&X<XuXpXfXhXhXhXhXhXrX<X9XrXrXaXpXrX.Xr.E ( E N 0 a G _ ( ' M.D.W.`._.].'._.`.m.2 . ; 6 u                       ",
"          }.l.c.-X<XrXpXfXhXhXhXhXhXyX9X9X9X9X9XyXpX<Xf.D E ) ' M.M.M.' ) N.N.S.F.`.`.).).W.C.V = + ; t                         ",
"          x.l.}.;X8XrXpXfXhXhXjXhXhXpX0X7X,X7XrXpXfXpX&XD B T _ ) ) ) ) ) ' N.N.S.F.F.F.F.S.( 0 > # <                           ",
"          z.j.Y.;X7XrXpXfXhXhXjXjXhXpX8X,X7XrXsXhXhXfX,Xq.5 N C T _ ( ( ( ) N.N.C.S.S.S.S.N.T w a ,                             ",
"          z.k.Y.&X:XqXwXdXfXkXhXjXhXpX,X9XpXfXhXhXhXhXuXi.3 3 w B E W E W ( m.m.V.V.N.N.N._ G N R s                             ",
"          x.z..X;X<XqXqXwXdXdXkXhXhXrX9XrXsXfXhXhXhXhXuXt.2 - 2 w   c.t.U S S D U R b.N.b.H H V w.s                             ",
"          c.c..X&X;X8XyXpXfXfXdXsXfX9XrXpXfXhXhXhXhXhXrXg.t t 1 <               u s R N.b.( b.S z.u                             ",
"          .Xc..X.X.X-XqXpXfXgXhXgXrX8XyXfXhXhXhXhXhXfX<Xy.L Q L u                               z.u                             ",
"          .X.X.X.X.X&XqXpXpXfXsXtX9X0XyXfXhXhXhXfXiX4X^.m.] ] ! I                               v.c                             ",
"          &X&XXXXX&X;X7XrXyXpXtX:X:XqXtXfXkXhXfXiX2X{.(.Q.B.] Z.n                               v.v                             ",
"            &X&X&X&X-X:X7X0XqX7XoXH.OX3XiXfXgXiX4X].'.'.).E.E.Z.7 c                             v.b                             ",
"              &XXX&X&X&X-X;X&XY.<.,.K.|.OX#XwX4X(.W.W.Q.C.W B.Y r                               l.{                             ",
"              oXT.XXXXXX.Xx.i.r.+.>.7.K.L.|. XT.V.V.e.Q a a Z.u v                                 b                             ",
"              H.<.H.p.p.r...b ..$.>.7.K.K.|.T.Y.Y.Y.y.V 9 w y.t                                   q.                            ",
"              ,.$.|  .A Z d c ..$.>.4.J.K.|.@XqXrXuX1X~ V L Y c                                                                 ",
"              ,.$.O. .m M d b X.-.>.>.7.K.|.eXfXhXhX5X/.! ! n                                                                   ",
"              J.>.$. .A Z h q.r.<.,.,.,.K.OXwXkXjXjXuXU.~ ~ K                                                                   ",
"                oXp.X.....q.0.i.i.p.p.H. XqXfXhXjXjXyXh.K K 8.                                                                  ",
"                z.g.0.0.0.i.g.f.f.f.g.}.8XpXhXjXjXjXyXv.z z 8.                                                                  ",
"                l.g.i.i.g.j.j.j.j.f.f.&XrXsXhXjXjXjXyXv.z l 8.d.                                                                ",
"                l.f.f.i.f.z.z.z.z.f.j.;XyXfXhXhXjXhXrXd.l l { u.                                                                ",
"                z.j.j.f.f.z.c.}.z.j..X<XyXfXhXjXhXhX<Xu.k j z 8.                                                                ",
"                z.j.j.f.g.j.Y.}.z.z.;XrXpXgXhXhXhXrX}.{ k j z 8.                                                                ",
"                x.x.z.j.i.f..X.Xz.}.,XrXpXfXhXhXpX-Xu.l k j l 8.                                                                ",
"                H.H.H.H.a.a.x..Xx..X<XrXtXiXwXwX:Xs.z k k j k {                                                                 ",
"                6.>.>.-.|  .a.Y.x.H. X@X@XOXOX Xa.c g g j j j j >X                                                              ",
"                6.;.%.#.O.A A k.oX,.,.J.K.|.|.L...r e e e g g l v.                                                              ",
"                  ,.&.$.$.| o.    ,.>.4.J.K.L.H.F 1 1 e e e j { s.                                                              ",
"                    6.,.<.        J.>.2.6.K.H.o.y ; 1 e e g l v y.Z.                                                            ",
"                                    ,.J.<.<.o.h 7 t x e g j v 9.E.Z.5X                                                          ",
"                                      +Xr.F h y 9 n 0.8.v x K y.E.E.  uX                                                        ",
"                                        I s y y p S l.*Xg.n U h./.                                                              ",
"                                      t.9.9.I I n I l.>Xt.I t.U.=X                                                              ",
"                                    h.h.~.=X4X^.t.I 0.h.9.t.h.t.                                                                ",
"                                  t.t.U.=X5X5X=X~.9.b 9.t.~.=X                                                                  ",
"                                9.9.t.~.=X5X5X=Xt.I I 9.h.~.^.                                                                  ",
"                                I I t.~.=X5X5X=X9.c q.w.h.~.=X=X                                                                ",
"                                                      q.0.h.~.1X                                                                "
};
