/* XPM */
static char *_5ea6e26eed745daebfd76535f9d21a3mxpU3FIqRteqAC5l[] = {
/* columns rows colors chars-per-pixel */
"64 64 239 2 ",
"   c None",
".  c #0C0D0C",
"X  c #070807",
"o  c #0E100F",
"O  c #11100E",
"+  c #0F1110",
"@  c #0D1718",
"#  c #131312",
"$  c #1A1917",
"%  c #1C1C1B",
"&  c #161919",
"*  c #130E0A",
"=  c #211E1B",
"-  c #241812",
";  c #23211E",
":  c #2A221F",
">  c #34261D",
",  c #171F21",
"<  c #1A2223",
"1  c #182125",
"2  c #192635",
"3  c #242423",
"4  c #2A2622",
"5  c #2B2926",
"6  c #24292A",
"7  c #2B2C2B",
"8  c #232728",
"9  c #322B25",
"0  c #342E2A",
"q  c #372C26",
"w  c #34312C",
"e  c #3B332C",
"r  c #3B3126",
"t  c #252D34",
"y  c #2C3233",
"u  c #2C323B",
"i  c #323433",
"p  c #3B3D3C",
"a  c #393735",
"s  c #452C1D",
"d  c #46392C",
"f  c #443A33",
"g  c #453B35",
"h  c #533E32",
"j  c #402F26",
"k  c #4D4239",
"l  c #4A4135",
"z  c #52463E",
"x  c #54493A",
"c  c #584E35",
"v  c #654638",
"b  c #675638",
"n  c #7A503D",
"m  c #7B6639",
"M  c #2D3C48",
"N  c #333947",
"B  c #323E52",
"V  c #3C4246",
"C  c #39465A",
"Z  c #36485B",
"A  c #2D404D",
"S  c #3C4D64",
"D  c #3E4F68",
"F  c #364E62",
"G  c #3D5167",
"H  c #3E536C",
"J  c #3F5974",
"K  c #3E5670",
"L  c #434442",
"P  c #4A4B4B",
"I  c #564B42",
"U  c #5B4D43",
"Y  c #524F4B",
"T  c #5C524A",
"R  c #444D59",
"E  c #545453",
"W  c #5A5A59",
"Q  c #4B535A",
"!  c #674F44",
"~  c #63554C",
"^  c #68584A",
"/  c #655B52",
"(  c #6D5E54",
")  c #745747",
"_  c #686359",
"`  c #776859",
"'  c #7C704D",
"]  c #42566D",
"[  c #475769",
"{  c #415B75",
"}  c #415E79",
"|  c #485D72",
" . c #4A5463",
".. c #5B646A",
"X. c #44627D",
"o. c #47657B",
"O. c #5A6878",
"+. c #6A6A6B",
"@. c #606060",
"#. c #6A767A",
"$. c #787975",
"%. c #726E6D",
"&. c #8B5A48",
"*. c #8C624E",
"=. c #8A6552",
"-. c #8A6B54",
";. c #846B5B",
":. c #876855",
">. c #9C6D54",
",. c #996A5A",
"<. c #89735A",
"1. c #93735C",
"2. c #9A755C",
"3. c #966F4A",
"4. c #A26E58",
"5. c #AA755C",
"6. c #A7745A",
"7. c #B1795E",
"8. c #8B7567",
"9. c #997A67",
"0. c #86756C",
"q. c #A57C64",
"w. c #AE7A63",
"e. c #A77865",
"r. c #B37C64",
"t. c #B37C6B",
"y. c #B77A69",
"u. c #AF6D63",
"i. c #A35F4F",
"p. c #C57A6B",
"a. c #D37D6E",
"s. c #D39C3B",
"d. c #E9AF3E",
"f. c #9A8750",
"g. c #A98746",
"h. c #A8875B",
"j. c #B69956",
"k. c #B2934A",
"l. c #928B72",
"z. c #A6826B",
"x. c #AB846C",
"c. c #A58767",
"v. c #B5826C",
"b. c #BB866B",
"n. c #A49365",
"m. c #AB8973",
"M. c #B38C74",
"N. c #BE8A72",
"B. c #B88B75",
"V. c #B4917C",
"C. c #BB947D",
"Z. c #BA9176",
"A. c #AD9775",
"S. c #B8A05F",
"D. c #C89B46",
"F. c #D09F44",
"G. c #D7A343",
"H. c #CAA85A",
"J. c #D4A950",
"K. c #ECB343",
"L. c #ECB84B",
"P. c #F4BB46",
"I. c #F2BD4A",
"U. c #F1B643",
"Y. c #E8BB57",
"T. c #EAB64C",
"R. c #C4896A",
"E. c #C48971",
"W. c #CB8C74",
"Q. c #C98876",
"!. c #D48976",
"~. c #CD9474",
"^. c #C3947D",
"/. c #CD937B",
"(. c #CB997B",
"). c #C69574",
"_. c #D2957D",
"`. c #D49C7D",
"'. c #D49779",
"]. c #CD9F67",
"[. c #D1AF66",
"{. c #E0937F",
"}. c #F6C14D",
"|. c #F8C44F",
" X c #F6C553",
".X c #F9CA55",
"XX c #F7C956",
"oX c #F4CE6A",
"OX c #F9D364",
"+X c #EBC774",
"@X c #F3D27B",
"#X c #456681",
"$X c #466984",
"%X c #4B6A84",
"&X c #4B6E8B",
"*X c #486884",
"=X c #566D84",
"-X c #4C728E",
";X c #4D7592",
":X c #567A96",
">X c #557996",
",X c #56768F",
"<X c #62798A",
"1X c #698499",
"2X c #788792",
"3X c #5C84A3",
"4X c #678AA7",
"5X c #7693AC",
"6X c #6C92B2",
"7X c #7E9EBA",
"8X c #7499B8",
"9X c #7590A7",
"0X c #6C91AF",
"qX c #91918C",
"wX c #BB9681",
"eX c #A7A598",
"rX c #8999A2",
"tX c #839EB7",
"yX c #8EA4B4",
"uX c #ADACA8",
"iX c #9FA18D",
"pX c #CC9682",
"aX c #C49A83",
"sX c #CB9C85",
"dX c #C79A85",
"fX c #D19582",
"gX c #D49B83",
"hX c #D79E86",
"jX c #CCA188",
"kX c #D5A283",
"lX c #DAA384",
"zX c #D5A28A",
"xX c #D4C48D",
"cX c #EDCB85",
"vX c #F5D888",
"bX c #EFD993",
"nX c #F3DFAC",
"mX c #ABBCCC",
"MX c #C8C7C4",
/* pixels */
"                                                                    q = = 4 4 3 5 3 %                                           ",
"                                                                r q 4 : = 4 3 3 = 3 3 3 5 3                                     ",
"                                                              s > - - O . * $ # $ % % ; 3 3 3 5 7 5                             ",
"                                                            uXiXs - - - - * X * # # & & % % % , 8 3 5 L                         ",
"                                                          qX$.8.n v n &.&.n h > # * $ # & & & & % , 3 5 a                       ",
"                                                      MX$./ 1.z.q.3.6.6.6.6.,.) r * . X . + o . # $ 3 , 3 i P                   ",
"                                                    MXqX/ =.n i.>.6.7.7.r.w.2.) > * X X X X X . O o # % ; 3 7 g                 ",
"                                                    MX9.8.>.4.>.6.7.7.7.w.5.*.j $ . . . . . . . . o . o o & 3 5 L               ",
"                                                    MX1.V.6.4.>.6.7.7.7.w.e.*.j $ * . . . X . o o o X + o $ 3 5 L               ",
"                                                    uX=.=.>.6.5.7.y.b.7.e.,.x = $ * O . O . o X X X o # o o & ; i               ",
"                                                    d d d 2.r.v.N.N.b.v.e.:.h 4 = $ % $ # O O O o X . . X X X # 4 W             ",
"        P                                           h j e -.v.b.E.W.^.z.9.! g f j q 4 4 ; : : $ # & . o . . o . $ Y             ",
"      < @ i   W p a                                 =.! ! -.N.E.E./.aXe.;.I I g g f e 9 0 0 e q ; ; $ $ # o # o + w Y           ",
"      < 1 , 1 < < 8                             5.,.v =.=.e.N.E.Q.W.dXt.;.~ I I k I h e I g g 0 9 9 ; $ # # . X . % P           ",
"        p @ , & < L                         w.w.t.4.v v v 4.b.E.)./.fXC.;./ I I h I z I z h k 0 9 9 : ; : $ # o # & w           ",
"        Q @ 1 , 1 6                     t.v.t.t.4.=.*.*.*.4.y.E././.pXaX;.T T I g T U I f d e e f d e : $ # o # # # 5           ",
"        < @ , < , @ < V                 v.t.u.4.u.e.e.e.w.7.b.Q.pXfXdXwX` T / I z ~ U z f d e r d e 9 ; # * o # + o & E         ",
"        t , < 7 , 1 < ^                   u.t.t.B.t.B.y.b.R.E./.fXfXwX9.0./ T U U ~ x k f e w w e e 3 = & . O # + # 3 _         ",
"                y , d F.+X                ,.t.^.Q.p.Q.fXpX/./._.fXfXwX0.` / T T ~ U I x f e e e 5 9 : ; % O . o o & 3 E         ",
"                  p D.K.}.@X              ,.Q.fXfXfXfXfXfX_._._.gXpXt.0.( / / / ( U U I k e e 9 5 : 5 ; # o o o o % 3           ",
"                    cXK.I. XvX            e.pXfXsXhXgXgXgX_._.gXhXdX9.0.` ( ( ;.( x ! U k a 0 3 9 5 5 ; O O # O & ; x           ",
"                      cXT.}. X@X        =.,.pXpXhXsXgXhXhXfXsXzXsXaX9.;.0.q.B.t.,.,.) U h f 9 5 w w 5 ; $ o . . $ 5 A.          ",
"                        cXL. XXXoXvX  e.t.e.Q.dXzXhXhXgXfXfXsXjXwXwXwXwXpXzXhXfXp.a.p.~ g a 3 5 9 9 5 $ # # . . % x xX          ",
"                          cX X XXXXX].t.t.e.pXsXzXsXgXsXsXdXaXaXwXwXwXdXhXhXhX!.u.!.fX4.g e 5 5 5 4 4 ; # O O # % '             ",
"                              +XI.H.y.N.x.q.aXsXsXzXjXjXjXwXC.V.wXwXsXkXlXhXR.i.a.{.a.u.f 0 5 9 5 5 3 3 # # O $ i `             ",
"                                cXc.x.z.z.x.C.aXsXdXjXaXaXaXC.C.wXwXhXgXhXy.i.u.!.!.a.,.e 0 i 0 3 5 3 % & $ & < P +.            ",
"                                  m.m.9.9.9.C.C.C.C.wXC.C.aXwXwXwXpXfX_.u.4.u.p._.a.a.! a a e 0 3 3 % % % ; ; a P               ",
"                                    8.8.8.9.x.Z.Z.Z.C.V.V.V.C.M.wXpXQ.Q.R.W.y.W.!.Q.,.I g f 0 5 8 3 % % 3 8 l x W               ",
"                                    0.;.8.1.q.z.M.M.M.m.M.M.Z.M./.'.E.Q.!.fX!.a.!.v.:.U g i 5 3 5 5 , = ; r D.b                 ",
"                                    0.:.;.9.9.z.M.M.M.M.m.M.V.Z.(.~.E.Q./._.Q.!.Q.t.:.T g w 5 3 8 3 , ; < r j.                  ",
"                                    rX<.;.<.2.q.c.c.M.M.M.M.M.Z.^.W.E._.!.!.!.!.E.M.` U g w 3 3 , = % = 9 S.                    ",
"                                  bXyXc.:.-.<.1.2.9.z.c.x.x.M.N.(./.'.fX_././.~.fXe.` U g w : % $ $ , 5 f.                      ",
"                                  cXyXiXf.' -.-.2.2.6.z.c.x.Z.Z.(.`.lXlXlX`.`.kX(.9.^ l e 7 3 & % % 3 f.bX                      ",
"                                  oXl.1XqX3.:.:.-.1.2.x.v.x.M.).(.`.lXlXlXlXkX`.^.8.T l e 3 % % 3 % m +X                        ",
"                                  OX<.<X5Xl.-.:.-.1.2.q.q.x.R.~.'.`.`.lXkXjX`.(.Z.;.x a w 3 ; e ^ T H.                          ",
"                                bXOXiX4X0X4XqX1.=.-.1.q.h.v.R.~.~.'.`.`.`.(.(.(.M.<.U l 7 5 P G G H #.                          ",
"                                vX+XrXtX6X3X;X1XA.c.2.7.5.h.R.R.].'.(.`.(.(.).).M.-.T c Q F F Q W ] =X                          ",
"                                vXxXyX7X8X3X:X>X>X>X2XA.M.R.R.R.R.~.(.(.].(.[.n.$.[ G Z P ' k.G.s.3.                            ",
"                                vXyX7X8X8X6X1X;X;X-Xo.o.*X=X<X#.#.#.$.n.l.O.o.{ } H ..n.Y.L.d.d.d.}.                            ",
"                                xXyX7X8X6X4X7X5X:X-X#X#X&X$X$XX.%XC A { o.o.o.+.l.S.Y.XX.X}.U.d.P..XbX                          ",
"                                eXtX8X6X3X0X3X} =X4X>X&X&X*X#XX.%XA M [ #.l.H.Y..X.X.X.X.X}.}.P.U.}.XX@X                        ",
"                              O.rX7X0X0X3X4XF A F F &X*X*X;X;X$X%X[ F <.}.}..X.X.X.X.X.X.X}.P.P.P.I.}. XOXbX                    ",
"                            mXyX0X0X3X3X3X3XF { Z 2 *X%Xo.;X;X#X} K [ k.}.}..X.X.X.X.X.X X}.P.U.d.I.K.K.}..XvX                  ",
"                            yXtX5X3X3X;X:X3X2 G H C } *XX.;X;X#XX.} o.D.K.}.}.XXXXXX.X.X Xg.b b n.nX+Xd..XOXOX                  ",
"                            5X5X6X4X>X-X&X,XF F F , $X#X#X-X$X#XX.} | F.K.}.}.}.XX}. X XJ.l i 7 p #.eXh.[..XOX                  ",
"                            1X4X3X3X*X#Xo.&X:X{ Z { $X#X$X-X$X#XX.J  .F.d.}.}.}.}.}.}.}.k.p p w 7 7 7 y r k.nX                  ",
"                            9X1X:X,X-XK } o.$X&X&X*X#X$X$X#XJ $XX.} [ G.d.I.I.}.}.}.}.Y.c i 7 8 6 6 < 7 6 p                     ",
"                            1X3X-X-X#X} G K } $X$X#X$X} K J J #X#XX...G.d.d.d.K.K.L.L.T.c < 3 6 i 7 < 6 6 a                     ",
"                            9X=X%X&X#X{ } *X} *X$X} } X.{ } #X-X;X-X| 3.g.D.D.F.s.G.G.G.G.b a N 7 8 3 3 p                       ",
"                              =X{ { { #X#X*X} #XX.K ] ] H } $X#X&X-X} ] ] R R E W ^ _ _ E V w 7 6 y y E                         ",
"                                ] ] ] ] { } } { *XJ J { { X.#X&X;X-X-X| ] S D C C C S S J H V L                                 ",
"                                   .] ] ] { } { o.#XJ } X.#XX.#X&X$X;X*XS D S S C C  .G { {                                     ",
"                                    O.] J J J J X.%X{ } X.X.} { X.$X&X-Xo.] D D S G G H K O.                                    ",
"                                     .N C S K H { %XX.} } { { { } X.o.-X&X#X{ K H ] K H O.                                      ",
"                      Y i y       tX] B B ] ] D H  .2X  2X=X| | H G G F F S Z Z C 9X                                            ",
"                      P V < y rX8X:X#XD S D H D S O.            O.[ Z V N u t < t                                               ",
"                        E p < y  .J } K G G S S O.                  O.R N u t t N R                                             ",
"                          N a 8 6 7 A H G G [ |                         R N N N C ]                                             ",
"                            V p N y 6 t A G |                             u t u u #.                                            ",
"                                  _ P L 7 V                             +.+.E y y                                               ",
"                                    / N L +.                            $.qX+.P V                                               ",
"                                      +.p                                 @.E P                                                 ",
"                                                                                                                                ",
"                                                                                                                                "
};
