/* XPM */
static char *_7e35bf1211148f6dc8d99283300ba9f0EP3wg6WurL7ypG5[] = {
/* columns rows colors chars-per-pixel */
"64 64 238 2 ",
"   c None",
".  c #040504",
"X  c #0A0806",
"o  c #070908",
"O  c #0B0C0B",
"+  c #080705",
"@  c #110D0B",
"#  c #170B06",
"$  c #12110F",
"%  c #0E1213",
"&  c #131413",
"*  c #191714",
"=  c #1C1A16",
"-  c #14191C",
";  c #1C1C1B",
":  c #171817",
">  c #0E100F",
",  c #231E1B",
"<  c #201915",
"1  c #331A0E",
"2  c #1F201F",
"3  c #24211D",
"4  c #29221D",
"5  c #352119",
"6  c #121D23",
"7  c #1A2226",
"8  c #172935",
"9  c #1F323E",
"0  c #232322",
"q  c #2B2622",
"w  c #2D2A25",
"e  c #2B2C2B",
"r  c #272A29",
"t  c #332C25",
"y  c #342E29",
"u  c #3B322A",
"i  c #363329",
"p  c #353433",
"a  c #3D3D3D",
"s  c #3B3B37",
"d  c #2C3338",
"f  c #42362D",
"g  c #44382F",
"h  c #453A31",
"j  c #4A3D33",
"k  c #423730",
"l  c #44381E",
"z  c #4D4135",
"x  c #4E4139",
"c  c #44433D",
"v  c #53453B",
"b  c #574438",
"n  c #5F5532",
"m  c #64493D",
"M  c #665337",
"N  c #776732",
"B  c #1C2F41",
"V  c #263848",
"C  c #283C4F",
"Z  c #2C414E",
"A  c #2D4458",
"S  c #374958",
"D  c #3D505E",
"F  c #344E64",
"G  c #3B5363",
"H  c #35546E",
"J  c #3B566C",
"K  c #3D596D",
"L  c #395466",
"P  c #2D5577",
"I  c #335571",
"U  c #395772",
"Y  c #3C5B74",
"T  c #365C7C",
"R  c #395C78",
"E  c #2C4F6F",
"W  c #3C617C",
"Q  c #474746",
"!  c #5A4C43",
"~  c #554C46",
"^  c #585858",
"/  c #4F5254",
"(  c #6A5346",
")  c #675549",
"_  c #735C4C",
"`  c #6A5C55",
"'  c #624E41",
"]  c #68625B",
"[  c #796558",
"{  c #766449",
"}  c #485C69",
"|  c #435E72",
" . c #405E7A",
".. c #565F65",
"X. c #4A6475",
"o. c #42647B",
"O. c #49687D",
"+. c #536B79",
"@. c #566976",
"#. c #5C707C",
"$. c #50636C",
"%. c #656565",
"&. c #68777A",
"*. c #77746E",
"=. c #977428",
"-. c #876758",
";. c #986D5B",
":. c #94755C",
">. c #9B785C",
",. c #887149",
"<. c #AB745E",
"1. c #AD6D5A",
"2. c #9D7C64",
"3. c #957766",
"4. c #9A7F70",
"5. c #897367",
"6. c #A57A65",
"7. c #B57A66",
"8. c #875F4C",
"9. c #C37F6A",
"0. c #778371",
"q. c #D0A433",
"w. c #E4B53B",
"e. c #F3C73B",
"r. c #958355",
"t. c #B19251",
"y. c #BDA35F",
"u. c #9B8472",
"i. c #848B75",
"p. c #A3816B",
"a. c #AC8569",
"s. c #B6846A",
"d. c #A98775",
"f. c #B48B74",
"g. c #B78B77",
"h. c #BB947C",
"j. c #BC957C",
"k. c #B29573",
"l. c #A9A175",
"z. c #BAAF6C",
"x. c #C7A44A",
"c. c #CEAD50",
"v. c #E9B64C",
"b. c #CB8D73",
"n. c #C78B76",
"m. c #C79679",
"M. c #D6957B",
"N. c #DB967D",
"B. c #D49B7D",
"V. c #D99A7D",
"C. c #D29775",
"Z. c #CE8D6F",
"A. c #D7BA65",
"S. c #D8A37C",
"D. c #D4B36C",
"F. c #ECC348",
"G. c #F3CA4A",
"H. c #F4CD59",
"J. c #EECD58",
"K. c #DBC362",
"L. c #E4C667",
"P. c #F5D564",
"I. c #F6D86C",
"U. c #E8C774",
"Y. c #F5DA75",
"T. c #F6DE7B",
"R. c #F7D975",
"E. c #EFCE72",
"W. c #F4E07F",
"Q. c #3B6483",
"!. c #3A6688",
"~. c #335D81",
"^. c #416682",
"/. c #446A85",
"(. c #4B6D85",
"). c #446D8C",
"_. c #496F89",
"`. c #4C728B",
"'. c #45718B",
"]. c #53758B",
"[. c #577689",
"{. c #4B7493",
"}. c #477391",
"|. c #597B93",
" X c #526E82",
".X c #657A86",
"XX c #617E90",
"oX c #6A818D",
"OX c #678497",
"+X c #778B98",
"@X c #79888E",
"#X c #738DA0",
"$X c #5D8196",
"%X c #8B8B8A",
"&X c #889496",
"*X c #979493",
"=X c #91938B",
"-X c #BD9582",
";X c #B49486",
":X c #A99489",
">X c #B1A395",
",X c #8999A3",
"<X c #A2A2A2",
"1X c #98A6A6",
"2X c #C39B84",
"3X c #CC9B85",
"4X c #C79A87",
"5X c #DB9E82",
"6X c #D39D8B",
"7X c #D69B86",
"8X c #CCA38C",
"9X c #C8A187",
"0X c #D6A384",
"qX c #DBA385",
"wX c #D2A58D",
"eX c #DCA38C",
"rX c #DDA98A",
"tX c #D7A88B",
"yX c #CDA895",
"uX c #DCA491",
"iX c #DCAA91",
"pX c #D4A790",
"aX c #CBB295",
"sX c #E2A58B",
"dX c #E3A98D",
"fX c #E0A185",
"gX c #E3A692",
"hX c #E5AB93",
"jX c #E8AC93",
"kX c #F6DF83",
"lX c #F5DE8A",
"zX c #F5DF95",
"xX c #E8D597",
"cX c #F6E083",
"vX c #F6E089",
"bX c #F8E082",
"nX c #E1D196",
"mX c #CBCACB",
/* pixels */
"                                                                                                                                ",
"                                                                                                                                ",
"                                          r - & : : ; 2 r r r r e r p c                                                         ",
"                                    o X o o o o o > % & : ; ; : & : 7 y a ~                                                     ",
"                                X . . . . . . . o % & ; ; 2 0 0 2 ; , 0 r p ~                                                   ",
"                              + . . . . . . . . o > > & ; ; ; 0 0 0 2 , 3 y ~                                                   ",
"                            + . . . . . . . . . o > : 7 2 : ; , q q q 4 0 0 Q                                                   ",
"                          . . . . . . . . . . o O & : 3 r y u g j m m b v ` *.                                                  ",
"                        X . . . . . . . . . o X X O O & = u m 8.1.<.<.<.f.*X%X                                                  ",
"                      # + . . + X X o o o o o @ > O @ & = f 8.7.b.Z.C.C.m.:X                                                    ",
"                      # . . + X O O # $ * * < 4 q 4 , , 4 h -.g.M.V.B.B.5X3X>X                                                  ",
"                      # . + X X O @ * 4 t 4 t i k u f h k x -.g.3XqXfX5X5X7X3Xd.                                                ",
"                    1 + . + o X # = 4 t t u f g j j v ~ ~ ! _ 4.3XdXdXsXfXqX6X;XyX                                              ",
"                    1 + . + X X $ 3 t f u f g g j j x v ! ) -.4.3XgXjXjXsX5Xd.[ %XmX                                            ",
"                    # + + o o O * 5 u t u f f u g v v v ! _ 5.h.iXdXjXjXsXn.[ ! 5.mX                                            ",
"                    O . . . + & * 4 t u t f u g h b v ~ ! ` 4.8XhXjXdXsX0Xg.:.5.:XmX                                            ",
"                    O . . . X $ , , t k f f f j v ! ! ~ ) ` u.yXjXgXsXgX6X7.;.3.;X<X                                            ",
"                    # . . . O & , , y u k h x ! ! ! ) ) ` [ 4.yXjXgXfXfX3X3.-.5.n.-X>X                                          ",
"                    < o . o O & ; , t u h v ( ( ( _ ) ` ` [ 4.2XhXgXfX5Xn.7.6.7.3X6X6XyX                                        ",
"                    5 + o . O & ; , q u j ( ;.<.;.;.5.-.[ [ 5.2XhXjXgXsX5X7Xn.7X7X6X6X6X                                        ",
"                    5 X o X O & : 4 q y z -.b.Z.n.b.n.g.3.5.4.4XiXgXgXgXgXgX7X7X7X6X3X7XpX                  ^ ^                 ",
"                    ( # o X O O * , q u v 7.5XN.Z.M.gXeX-Xd.;X4XuXgXgXjXjXgXgX7X6XuX9.n.6X                %.e ;                 ",
"                      $ O O > & : < q u ' 7.N.5X9.b.eXdXwX2X2X8XpXgXgXjXgXgXgXuXuX6X4Xg.                  ^ e e %.a s e Q       ",
"                      , > O O & : , t j ' 1.Z.N.9.1.b.sXuXyX9X8XwXiXhXjXgXgXgXgXgX6X4X;X                  ^ e r r e r : Q       ",
"                        = % $ > & 3 f j ' ;.b.N.n.1.<.V.hXiXyX8X8XpXiXhXhXhXgXgXuX6X;X;X                  V e p e 0 , s         ",
"                        w : & & : 4 u b ( >.b.N.b.7.7.n.rXiXaXwXyXwXwXtXiXiXuXuXuX4X6.g.                ~ 2 0 e 0 : r           ",
"                          2 & & : 3 y x _ p.b.M.M.5Xn.n.V.rXaX8X8X4X9XwXwXeXpXuX6X4X6.g.              p w w & : 0 /             ",
"                          i , : : 3 u x _ p.m.B.M.V.M.Z.B.qXtX9X2X2X9X8XtXtXpXpX4X4X4Xm.aX            n e 0 0 Q                 ",
"                          Q u , ; 3 y j _ 6.m.0XM.V.V.V.B.0X8X9X9X9X9X9X8XwXwX8X9X-X-X4X9X          P.c.f 3 ^                   ",
"                          ` n y , 0 t h ) 6.m.0X5X5XS.V.5X0X8X9Xj.-Xm.9X9X8X8X9X-Xh.-X4X-X      zXH.G.F.D.                      ",
"                            { z 0 4 e h _ 2.m.0XqXrXdXdXsX0X9Xm.j.j.j.j.j.j.2Xh.d.d.g.h.f.>X  lXG.G.F.U.                        ",
"                              [ w q u j ) 6.j.0XrXdXdXdXsX0Xm.j.j.j.g.f.g.f.k.u.3.3.d.k.a.l.E.F.e.v.U.                          ",
"                                z y h j _ <.h.D.qXrXrXdXrX0Xm.m.k.f.a.a.2.2.2.2.:.:.r.q.q.r.w.e.F.L.                            ",
"                                u.~ b M { a.f.C.S.qXS.rXrXS.m.f.s.a.>.:.:.3.:.>.t.c.w.q.q.N q.w.K.                              ",
"                                1X.X=.x.t.x.Z.Z.C.S.S.S.S.S.m.k.a.6.:.:.:.:.r.c.x.x.t.t.=.} ,.A.                                ",
"                                #X{ w.P.R.H.v.v.v.D.S.S.S.S.m.d.6.[ ..| o. X/._.X.W Y I U F /                                   ",
"                                &X=.H.Y.Y.I.H.P.R.R.R.E.E.P.F.r.S V F T T !.!.!.!.P ~.E P C }                                   ",
"                                %Xx.Y.Y.T.T.T.W.kXkXkXkXW.Y.J.y.$.X.I Q.Q.Q.!.~.!.P P E P I @.                                  ",
"                                %.y.cXcXcXkXbXkXkXcXlXkXcXT.P.c.[.Q.'././.!.Q.R W I H U U U #.                                  ",
"                                  l.lXcXbXbXbXkXlXvXlXlXW.I.P.K. X!.!.}.!.).!.'.!.Z A F U U #.                                  ",
"                                  >XzXvXcXcXcXcXvXvXvXvXW.Y.P.K..X}.}.}.!.!.!.'.Y S J C U J |                                   ",
"                                  =XzXcXcXcXcXcXvXvXvXvXcXT.P.G.0.{.}.}.}.}.!.`.U | V S Y U X.                                  ",
"                                  =XzXvXW.cXbXcXcXvXvXvXcXW.I.J.*._.{.{.).{.Q./.J Z K C Y U X.                                  ",
"                                  1XnXvXkXkXcXcXcXcXvXcXW.T.I.J.0.'.{.{.{.}.)./.O.Z C S U  .|                                   ",
"                                    aXkXT.T.T.Y.Y.W.W.Y.Y.Y.P.F.0.X./.{.}.}.).W W | J J E Y U                                   ",
"                                    l.E.L.L.L.K.A.A.z.z.l.0.0.&.+.W Q.'.{.!.).Q.T I P I R Y Y @.                                ",
"                                    &X&X&.@XoXoX[.$X[.$X$X`.`.`.O.'.'.`.`.}./.T Q.W T R U Y U #.                                ",
"                                    +XOX`.#X$X$X|.$X].[.[.'./.W +.'.'.'.'././.Q.R I o.U U U K &.                                ",
"                                    #XOX#X#XOX$X].|.].].[.).o.W ]./.Q././././.W W Y Y K Y Y $..X                                ",
"                                    ,X+XOXOX|.[.|.|.|.].#.O.O.]./.W W W o.o.W W W | K J } } @.                                  ",
"                                      +XOXXX.X|.|.|.`.(. X X]./.W W R W R U H J J G } J K }                                     ",
"                                      ,XoX.X.X X+. XO./.o.o.o.| U J H U Y K F F L G J G }                                       ",
"                                        &X.X&.+.+.+.X.X.o.K K J J H L K } J F G } G D }                                         ",
"                                          &X&.$.@.$.} } G G F G D G D D D S S S D }                                             ",
"                                                &...D S S A A C Z Z Z V V V ..                                                  ",
"                                                  &.D A V B B V 9 8 8 8 9                                                       ",
"                                                  @X} F C B 8 8 6 7 8 8 S                                                       ",
"                                                  &X+.K C 8 - % % - - - e Q p                                                   ",
"                                                  %XQ 0 6 % 0 O O O O O O & & ; ~                                               ",
"                                                  *.] V ; - & & ; r 7 * - ; ; ; V                                               ",
"                                                  <X%.p r r ; ^ *X<X<X*X*X%X%X%X<X                                              ",
"                                                        *.%.^                                                                   ",
"                                                                                                                                ",
"                                                                                                                                "
};
