/* XPM */
static char *_072da3106e14c848468c60afd2adcbfeXAQwi52SMnJATIz[] = {
/* columns rows colors chars-per-pixel */
"64 64 253 2 ",
"   c None",
".  c #1A1B17",
"X  c #0D0E09",
"o  c #1F260F",
"O  c #283909",
"+  c #28251B",
"@  c #353515",
"#  c #2A2B25",
"$  c #282A24",
"%  c #35342A",
"&  c #383834",
"*  c #302E25",
"=  c #221C0E",
"-  c #482C18",
";  c #57361A",
":  c #45341C",
">  c #643E1E",
",  c #583724",
"<  c #463B2F",
"1  c #643D28",
"2  c #723E3B",
"3  c #2C460C",
"4  c #32440B",
"5  c #374A0C",
"6  c #3A550E",
"7  c #2B4712",
"8  c #334D12",
"9  c #384917",
"0  c #335414",
"q  c #3A5412",
"w  c #3C5B14",
"e  c #385819",
"r  c #2F5111",
"t  c #3C6318",
"y  c #3E4C29",
"u  c #494D15",
"i  c #455A16",
"p  c #545C18",
"a  c #49500F",
"s  c #6C471B",
"d  c #735A1A",
"f  c #436214",
"g  c #446A1C",
"h  c #486618",
"j  c #556A17",
"k  c #53731E",
"l  c #686F1E",
"z  c #5B4B28",
"x  c #465526",
"c  c #535D26",
"v  c #44433A",
"b  c #514F32",
"n  c #67432C",
"m  c #74462A",
"M  c #6C4532",
"N  c #754A33",
"B  c #78583B",
"V  c #6E562B",
"C  c #486922",
"Z  c #577624",
"A  c #566D2E",
"S  c #746B31",
"D  c #772F51",
"F  c #474846",
"G  c #585448",
"H  c #595A56",
"J  c #524F49",
"K  c #695849",
"L  c #5B6449",
"P  c #696457",
"I  c #727250",
"U  c #744866",
"Y  c #567674",
"T  c #73726A",
"R  c #4B5D60",
"E  c #AC393B",
"W  c #932E34",
"Q  c #8D6A1B",
"!  c #966E17",
"~  c #85563D",
"^  c #855331",
"/  c #A75032",
"(  c #856825",
")  c #977629",
"_  c #967835",
"`  c #8D6D32",
"'  c #A7762E",
"]  c #986E18",
"[  c #C8683E",
"{  c #95375E",
"}  c #8C5C44",
"|  c #855B44",
" . c #8F534C",
".. c #B54F4A",
"X. c #886547",
"o. c #966549",
"O. c #96754D",
"+. c #AE7049",
"@. c #924970",
"#. c #AD5773",
"$. c #8D6F70",
"%. c #B47274",
"&. c #CE5653",
"*. c #D2655B",
"=. c #E1705C",
"-. c #D57576",
";. c #D2676B",
":. c #E56663",
">. c #DC5E6A",
",. c #768E33",
"<. c #7C8658",
"1. c #788B4C",
"2. c #A68637",
"3. c #B58A36",
"4. c #B79437",
"5. c #AE892B",
"6. c #A3852B",
"7. c #C49729",
"8. c #C89B35",
"9. c #D09E35",
"0. c #CAA339",
"q. c #D5AB34",
"w. c #DBAD3C",
"e. c #D5A737",
"r. c #DCB139",
"t. c #D1A42B",
"y. c #E4B43C",
"u. c #ECBC3B",
"i. c #E6B637",
"p. c #E1AD35",
"a. c #F0C23E",
"s. c #948D52",
"d. c #B28F4F",
"f. c #BDA144",
"g. c #889667",
"h. c #8E8B73",
"j. c #B3906C",
"k. c #9CA374",
"l. c #ABAD74",
"z. c #8DA55C",
"x. c #C49B4F",
"c. c #CCA746",
"v. c #D6AA45",
"b. c #DCB346",
"n. c #DCB458",
"m. c #CEA859",
"M. c #ECBC44",
"N. c #ECBD4A",
"B. c #E4B646",
"V. c #F0BF47",
"C. c #E6BB56",
"Z. c #E2AE41",
"A. c #C5906F",
"S. c #D9B666",
"D. c #D0B26E",
"F. c #E3BB63",
"G. c #EDA267",
"H. c #E09868",
"J. c #EEC044",
"K. c #EEC34B",
"L. c #E7C04B",
"P. c #F0C145",
"I. c #F1C44A",
"U. c #EDC554",
"Y. c #EDC859",
"T. c #F1C652",
"R. c #F1C954",
"E. c #F2CC5C",
"W. c #F0C35B",
"Q. c #F2D15D",
"!. c #ECC866",
"~. c #F2D363",
"^. c #F2D569",
"/. c #F4DC6D",
"(. c #F2D867",
"). c #EAC87A",
"_. c #F5DC71",
"`. c #F2D97A",
"'. c #EFD06B",
"]. c #F7E26F",
"[. c #F7E271",
"{. c #F9E372",
"}. c #376A88",
"|. c #626A81",
" X c #9B428A",
".X c #AF538C",
"XX c #B77095",
"oX c #B16CA3",
"OX c #CC7E80",
"+X c #D372B2",
"@X c #538999",
"#X c #5892AC",
"$X c #7297B1",
"%X c #53A3BC",
"&X c #77A3B7",
"*X c #5AA9C3",
"=X c #69B8D1",
"-X c #6FC3E1",
";X c #9B978A",
":X c #979A96",
">X c #87898F",
",X c #AB9790",
"<X c #ADB094",
"1X c #829CB4",
"2X c #B68BA9",
"3X c #86A7B7",
"4X c #B5B2A8",
"5X c #B7B9B2",
"6X c #ACADAA",
"7X c #9BA19F",
"8X c #D78787",
"9X c #D19392",
"0X c #C7B38F",
"qX c #C694B2",
"wX c #D7BBB9",
"eX c #C8B0AA",
"rX c #E59592",
"tX c #B9C58C",
"yX c #B6C4B1",
"uX c #DCC183",
"iX c #D3C896",
"pX c #E3C78A",
"aX c #EDD988",
"sX c #EDD99A",
"dX c #F2DA99",
"fX c #EED787",
"gX c #F4E48A",
"hX c #F3E397",
"jX c #C6C6BB",
"kX c #CCCCA7",
"lX c #E9D6AA",
"zX c #F1E8B4",
"xX c #DFE8B3",
"cX c #C69FC0",
"vX c #88C5D8",
"bX c #AED1D5",
"nX c #B8DAE1",
"mX c #9AD3E2",
"MX c #CACAC5",
"NX c #D9CDC6",
"BX c #D3D2CC",
"VX c #DBD7CA",
"CX c #D9D9D4",
"ZX c #CED0D0",
"AX c #E2DDDB",
"SX c #E7DECF",
"DX c #DDE2D6",
"FX c #E5E3DC",
"GX c #F6F1D9",
"HX c #E9E8E5",
"JX c #FCFCFB",
"KX c #F7F7F4",
"LX c #EFF0E9",
/* pixels */
"                                                                                                                                ",
"                                                                                                                                ",
"                                                          nX                                                                    ",
"                                                        nXmXbXvX-X=XrXrXVXeX8X                                                  ",
"                                                      zXnXvXmX-X=X$XOXrXwX-.:.;.+XoXoXcXoX                                      ",
"                                                    SXxXnX%X#X$XU 2X9X>.rX:.:.*.OX.X X2X X2X                                    ",
"                                                  wXiXyX#X}.}.$X#X#X$.W E =.G.H.rXOX XU  X>X,X-.wXOXrX                          ",
"                                                cXkXj.h.@X}.}.#X*X%XY W E &.:.;.+X.X@.U U @.#.*.;.OX-.qX                        ",
"                                            7XeX2X0Xs.<.*X}.@XY #X#X$.E ../ &...#.@.2 @.D ;.*.......8X9X                        ",
"                                              oXXXl.iXyX=X<.%XY X.%.j.9XrXj.2.' 6.Q { .XD >.&...W ....*.0X                      ",
"                                          NX8XqXAXFXGXDXvXY @X#XXXNXAXHXGXHXGX0Xc.3.#.#.W  XW / &...*.A.s.;X&XbX                ",
"                                            wXAXeX4XbXCXLX7XR 3XDX5Xh.T $.;XBXLX<Xj.x.d.5.' ..:.&./ =.A.d.l.3X&X                ",
"                                          FXBXT G O.j.l.VXHX6XVX:Xb o.f.D.D.0XFXHX$.s.c.q.7.' [ / ] &.x.l.iXbX&X3X5X            ",
"                                          CXG K m.'.'.).0XAXFX5XG s.F.`.`.`.).lXLX:XT s.q.r.t.7.7.] Q Q d.<X%X#X1X  >X          ",
"                                        FX:XJ m.`.gX`.`.).lXHXT X.S.fXfXfXfX).pXHX5X|.J <X4.0.e.0.8.5.! ( P 1X$X$X              ",
"                                        FXP O.pXdXzXpXj.x.eXVXL s.pXzXGXGX0XX.O.HX5X7XF :Xv c S _ 4.4.5.( 1 #.&X3X              ",
"                                        HXF $.SXJXJXeXK  .eXMXK ,XCXLXJXKX9X< } DX6X7XR >X& v y y F S X.` m $.&X5X              ",
"                                        HX< ;XLXJXJXeX} } wXBXK <XCXLXJXJXwX .%.DX5X7XF :X& & * # & F F F K ..XX                ",
"                                        DXP h.AXKXJXJXBXNXAXCXT h.BXFXLXKXJXHXHXMX5X>XF >X& v v F & y & J K  .A.                ",
"                                        MX5XV eXHXKXKXLXFXMXMX4XK 0XCXHXLXLXLXVXyX:X>XT d.2._ ) ( B b J H T #.                  ",
"                                          MX;XO.eXBXCXCXBX:XT BX4XO.0XjXCXCXZXjX>XP $.2.9.q.w.w.w.c.c.2.B $.XX                  ",
"                                          MXMXMXkXBXZXjX4Xb % ;XjXVXVXSXZXMX5XT G K _ 0.w.y.M.M.M.B.C.n.D.j.                    ",
"                                            ZXyXwXMX5X;XK b ( 6.j.kXjXNX5X;XP L b 6.8.q.y.M.I.J.N.N.C.F.S.                      ",
"                                              sXC.x.s._ 2.0.q.q.r.q.0.4.2.' ) 5.8.0.v.b.y.M.N.V.V.N.N.C.pX                      ",
"                                              dXW.B.b.b.K.R.R.R.R.I.L.r.r.r.q.q.w.b.y.B.y.M.V.P.V.N.C.F.pX                      ",
"                                              dXE.E.E.Q.Q.~.(.~.Q.Q.Q.U.K.L.L.B.B.M.M.M.M.J.P.P.V.N.N.C.pX                      ",
"                                              dX^.(.(.(.(./.(.(.].Q.Q.Q.R.U.U.K.K.K.V.V.M.J.M.M.V.N.C.C.pX                      ",
"                                              dX^.(.(.(./.]._._.].(.(.Q.Q.E.R.R.U.K.I.P.M.a.P.M.M.B.C.F.pX                      ",
"                                              dX^./._./.]._.{._././.^.(.Q.Q.E.R.R.T.T.I.V.a.M.M.B.N.C.C.pX                      ",
"                                              dX_._._.].].].{._./././.^.~.Q.Q.E.E.E.T.I.V.M.u.y.y.B.n.F.pX                      ",
"                                              aX_._._._.{.{.{.{.[././.~.E.T.~.~.Q.R.R.P.P.u.i.i.Z.Z.Z.F.pX                      ",
"                                              aX_./.].{.].{.{._././.~.Y.E.^.^.^.Q.R.I.P.u.u.i.y.y.Z.n.F.pX                      ",
"                                              fX[.].].{.!.Y.Y.E.U.U.Y./._././.^.E.R.P.u.u.i.i.i.i.Z.n.S.A.                      ",
"                                              `./.].{.{.[./.~.~.'./._._._./.'.Q.R.I.u.u.i.i.p.9.4.3.` z % # l.'.fXaXsX          ",
"                                              `._.[.].].[.{.{.{.[.[._./.^.^.~.E.R.a.e.) 5.5.s @ @ + $ $ $ $ ` T.R.Q.E.`.        ",
"                                              `././.].].].{.{.{.[./._.'.!.Y.U.K.J.M.z : % + + + $ $ $ $ $ $ V B.I.T.T.!.        ",
"                                            zX/././././././._._.(./.n.d._ ` _ x.i.q.+ * * # # $ # # < z z u ) t.t.p.y.).        ",
"                  H I aXgXgXgXgXaXgXgXhXhXhXhX].`.n.f.c.~./._._./.n.o.X.| N m > 3.p.: + + # % + # % _ 8.9.8.9.p.p.w.v.sX        ",
"    F & v v & & & & V C.~./.(./.~.(./.[.{.{.{.!.d.~ M m ` C././.!.o.} ~ K N 1 , ; 3.7.] ( + X X + 2.e.t.9.c.m.S.pX              ",
"    & $ # # & + . # : c.F.!.!.!.W.W.E.~./././.+.o. .^ N > d.~.'.d.X.} X.~ | 2 , - s 7.5.! - = = ( 9.e.8.D.                      ",
"    P F $ X + . < H T             lXfXfX!.~.m.o.o.} ~ m 2 ^ U.Y.+.} } K K ~ N M , ; ( ) d s ; V ' c.c.m.pX                      ",
"      F $ X *                             sX+.o.}  .~ N ; s _ _ ` } ~ } X.X.N n , - Q ) ) ! ! Q ( d d ` s.                      ",
"        J                                   $.o. .^ N m ; > 9.N.` ~ ~ ~ N M 1 1 ; > 3.p.r.q.q.q.e.e.v.v.m.,X                    ",
"                                            O.~ ~ ~ N 1 ; > e.U.x.N N N M n 2 , - ( q.u.L.u.i.i.w.Z.b.n.S.                      ",
"                                              o.N M 2 1 , d B.E.C.' 1 1 ; , , - m 7.y.I.I.I.M.y.y.w.v.n.S.                      ",
"                                              0XN , , - - 8.U.~.E.N.3.m ; ; m ] 8.y.I.R.I.P.V.B.Z.v.v.c.d.K                     ",
"                                              lXF.' m ^ 8.N.Q.Q.~.~.N.Z.9.9.9.t.p.N.V.I.P.u.y.e.8.' ( s u b g.                  ",
"                                                '.C.B.Z.N.N.E.~.E.E.E.T.M.M.y.b.e.8.4.' ) l d a 9 4 @ O 4 u x g.                ",
"                                                D.m.v.c.v.b.c.4.0.f.4.5.6.( l p d p a a 5 p u q 4 6 @ 5 7 7 9 A                 ",
"                                              k.j j p p j p i j p i f j f w a 6 h f t 3 6 6 6 w 3 8 3 8 9 7 9 x g.              ",
"                                            tXl j h q h j t t g t 6 f f f t r e 6 f t r 0 5 5 w 0 7 4 3 9 7 9 x 1.              ",
"                                            ,.k k q q h k 6 t g 0 w t 6 g t r t 3 6 g 7 0 0 5 w 0 7 7 O e 7 e e I               ",
"                                          tX,.Z g g e Z Z t C C r t w w g t r 0 3 6 f 3 0 9 4 0 8 7 7 O 7 7 9 y A               ",
"                                          k.k g t Z 8 Z C C t t e t 3 t t r e r 3 3 t r 9 7 O 0 0 7 O o 7 9 e I S <X            ",
"                                          z.i k t e e Z t C C e w q 3 w t r q 0 O 3 g r e 3 O 9 8 7 O O x y y ;X<.              ",
"                                          1.j l C 9 i Z g C t w g 3 3 f w r w 3 O 3 i r q O 7 A 8 8 O y L e A   <.              ",
"                                          ,.l k k 5 f k g g t t A u 3 f 6 6 6 3 O 5 i q 5 O c g.e 4 O L y e I   ;X              ",
"                                        l.z.z.k j a j j k f g 1.5XA 5 h w f 4 O 4 C h e O 9   g.c 4 x   y C     <X              ",
"                                        tXxXtXj S S j ,.k j 1.DXH 6 a j f z.4 4 a tXZ J 4 9     1.4 <.  b A                     ",
"                                        kX  z.,.l.l.,.,.z.l.yXoX+ j a j 1.VXa a k.yXl.y u X     g.p     T g.                    ",
"                                            l.,.LXl.kXtX:X$ X X @ C % c H jXp k.    7Xo @ X F     <.                            ",
"                                            kX          F . X X . . + + F <Xk.      J @ % & J                                   ",
"                                                          F v & .                     $ & & J                                   ",
"                                                                                                                                "
};
